<svg width="25" height="25" viewBox="0 0 25 25" fill="none" xmlns="http://www.w3.org/2000/svg">
<path d="M19.4891 8.55202C19.3923 8.45439 19.2771 8.37689 19.1501 8.32401C19.0232 8.27112 18.887 8.2439 18.7495 8.2439C18.612 8.2439 18.4759 8.27112 18.3489 8.32401C18.222 8.37689 18.1068 8.45439 18.0099 8.55202L13.2391 13.3229C13.1423 13.4205 13.0271 13.498 12.9001 13.5509C12.7732 13.6037 12.637 13.631 12.4995 13.631C12.362 13.631 12.2259 13.6037 12.0989 13.5509C11.972 13.498 11.8568 13.4205 11.7599 13.3229L6.98911 8.55202C6.89227 8.45439 6.77706 8.37689 6.65012 8.32401C6.52319 8.27112 6.38704 8.2439 6.24952 8.2439C6.11201 8.2439 5.97586 8.27112 5.84892 8.32401C5.72199 8.37689 5.60678 8.45439 5.50994 8.55202C5.31593 8.74719 5.20703 9.0112 5.20703 9.28639C5.20703 9.56159 5.31593 9.8256 5.50994 10.0208L10.2912 14.802C10.8771 15.3872 11.6714 15.7159 12.4995 15.7159C13.3277 15.7159 14.1219 15.3872 14.7079 14.802L19.4891 10.0208C19.6831 9.8256 19.792 9.56159 19.792 9.28639C19.792 9.0112 19.6831 8.74719 19.4891 8.55202Z" fill="white"/>
</svg>
