<svg width="15" height="8" viewBox="0 0 15 8" fill="none" xmlns="http://www.w3.org/2000/svg">
<path d="M14.7037 0.640155C14.6069 0.542521 14.4917 0.465026 14.3647 0.412142C14.2378 0.359258 14.1016 0.332031 13.9641 0.332031C13.8266 0.332031 13.6905 0.359258 13.5635 0.412142C13.4366 0.465026 13.3214 0.542521 13.2245 0.640155L8.45371 5.41099C8.35687 5.50862 8.24166 5.58612 8.11472 5.639C7.98779 5.69188 7.85163 5.71911 7.71412 5.71911C7.57661 5.71911 7.44046 5.69188 7.31352 5.639C7.18659 5.58612 7.07138 5.50862 6.97454 5.41099L2.20371 0.640155C2.10687 0.542521 1.99166 0.465026 1.86472 0.412142C1.73779 0.359258 1.60164 0.332031 1.46412 0.332031C1.32661 0.332031 1.19046 0.359258 1.06352 0.412142C0.936585 0.465026 0.821376 0.542521 0.72454 0.640155C0.530528 0.835324 0.421631 1.09934 0.421631 1.37453C0.421631 1.64972 0.530528 1.91374 0.72454 2.1089L5.50579 6.89015C6.09173 7.47537 6.88599 7.80407 7.71412 7.80407C8.54225 7.80407 9.33652 7.47537 9.92246 6.89015L14.7037 2.1089C14.8977 1.91374 15.0066 1.64972 15.0066 1.37453C15.0066 1.09934 14.8977 0.835324 14.7037 0.640155Z" fill="white"/>
</svg>
