<svg width="16" height="8" viewBox="0 0 16 8" fill="none" xmlns="http://www.w3.org/2000/svg">
<path d="M14.9896 0.532061C14.8928 0.434427 14.7775 0.356933 14.6506 0.304049C14.5237 0.251165 14.3875 0.223938 14.25 0.223938C14.1125 0.223938 13.9763 0.251165 13.8494 0.304049C13.7225 0.356933 13.6073 0.434427 13.5104 0.532061L8.73959 5.3029C8.64276 5.40053 8.52755 5.47802 8.40061 5.53091C8.27368 5.58379 8.13752 5.61102 8.00001 5.61102C7.8625 5.61102 7.72635 5.58379 7.59941 5.53091C7.47247 5.47802 7.35726 5.40053 7.26043 5.3029L2.4896 0.532061C2.39276 0.434427 2.27755 0.356933 2.15061 0.304049C2.02368 0.251165 1.88752 0.223938 1.75001 0.223938C1.6125 0.223938 1.47635 0.251165 1.34941 0.304049C1.22247 0.356933 1.10726 0.434427 1.01043 0.532061C0.816417 0.72723 0.70752 0.991243 0.70752 1.26644C0.70752 1.54163 0.816417 1.80564 1.01043 2.00081L5.79168 6.78206C6.37762 7.36727 7.17188 7.69598 8.00001 7.69598C8.82814 7.69598 9.62241 7.36727 10.2083 6.78206L14.9896 2.00081C15.1836 1.80564 15.2925 1.54163 15.2925 1.26644C15.2925 0.991243 15.1836 0.72723 14.9896 0.532061Z" fill="#004900"/>
</svg>
