<svg width="20" height="16" viewBox="0 0 20 16" fill="none" xmlns="http://www.w3.org/2000/svg">
<path d="M1.14282 7.08398C0.590537 7.08398 0.142822 7.5317 0.142822 8.08398C0.142822 8.63627 0.590537 9.08398 1.14282 9.08398L1.14282 7.08398ZM18.9928 8.79109C19.3834 8.40057 19.3834 7.7674 18.9928 7.37688L12.6289 1.01292C12.2384 0.622392 11.6052 0.622392 11.2147 1.01292C10.8241 1.40344 10.8241 2.03661 11.2147 2.42713L16.8715 8.08398L11.2147 13.7408C10.8241 14.1314 10.8241 14.7645 11.2147 15.1551C11.6052 15.5456 12.2384 15.5456 12.6289 15.1551L18.9928 8.79109ZM1.14282 9.08398L18.2857 9.08398L18.2857 7.08398L1.14282 7.08398L1.14282 9.08398Z" fill="white"/>
</svg>
