<svg width="26" height="26" viewBox="0 0 26 26" fill="none" xmlns="http://www.w3.org/2000/svg">
<g clip-path="url(#clip0_278_576)">
<path d="M20.5417 3.04329H19.5V2.00163C19.5 1.72536 19.3903 1.46041 19.1949 1.26506C18.9996 1.06971 18.7346 0.959961 18.4583 0.959961C18.1821 0.959961 17.9171 1.06971 17.7218 1.26506C17.5264 1.46041 17.4167 1.72536 17.4167 2.00163V3.04329H9.08333V2.00163C9.08333 1.72536 8.97359 1.46041 8.77824 1.26506C8.58289 1.06971 8.31793 0.959961 8.04167 0.959961C7.7654 0.959961 7.50045 1.06971 7.3051 1.26506C7.10975 1.46041 7 1.72536 7 2.00163V3.04329H5.95833C4.57751 3.04495 3.25371 3.59421 2.27731 4.57061C1.30092 5.547 0.751654 6.8708 0.75 8.25163L0.75 20.7516C0.751654 22.1325 1.30092 23.4563 2.27731 24.4326C3.25371 25.409 4.57751 25.9583 5.95833 25.96H20.5417C21.9225 25.9583 23.2463 25.409 24.2227 24.4326C25.1991 23.4563 25.7483 22.1325 25.75 20.7516V8.25163C25.7483 6.8708 25.1991 5.547 24.2227 4.57061C23.2463 3.59421 21.9225 3.04495 20.5417 3.04329ZM2.83333 8.25163C2.83333 7.42283 3.16257 6.62797 3.74862 6.04192C4.33468 5.45587 5.12953 5.12663 5.95833 5.12663H20.5417C21.3705 5.12663 22.1653 5.45587 22.7514 6.04192C23.3374 6.62797 23.6667 7.42283 23.6667 8.25163V9.29329H2.83333V8.25163ZM20.5417 23.8766H5.95833C5.12953 23.8766 4.33468 23.5474 3.74862 22.9613C3.16257 22.3753 2.83333 21.5804 2.83333 20.7516V11.3766H23.6667V20.7516C23.6667 21.5804 23.3374 22.3753 22.7514 22.9613C22.1653 23.5474 21.3705 23.8766 20.5417 23.8766Z" fill="#777777"/>
<path d="M13.25 18.1475C14.1129 18.1475 14.8125 17.4479 14.8125 16.585C14.8125 15.722 14.1129 15.0225 13.25 15.0225C12.3871 15.0225 11.6875 15.722 11.6875 16.585C11.6875 17.4479 12.3871 18.1475 13.25 18.1475Z" fill="#777777"/>
<path d="M8.04199 18.1475C8.90494 18.1475 9.60449 17.4479 9.60449 16.585C9.60449 15.722 8.90494 15.0225 8.04199 15.0225C7.17905 15.0225 6.47949 15.722 6.47949 16.585C6.47949 17.4479 7.17905 18.1475 8.04199 18.1475Z" fill="#777777"/>
<path d="M18.458 18.1475C19.321 18.1475 20.0205 17.4479 20.0205 16.585C20.0205 15.722 19.321 15.0225 18.458 15.0225C17.5951 15.0225 16.8955 15.722 16.8955 16.585C16.8955 17.4479 17.5951 18.1475 18.458 18.1475Z" fill="#777777"/>
</g>
<defs>
<clipPath id="clip0_278_576">
<rect width="25" height="25" fill="white" transform="translate(0.75 0.959961)"/>
</clipPath>
</defs>
</svg>
