<svg width="21" height="21" viewBox="0 0 21 21" fill="none" xmlns="http://www.w3.org/2000/svg">
<g clip-path="url(#clip0_19_207)">
<path d="M11.3332 1.8133C11.3332 1.59229 11.421 1.38033 11.5773 1.22405C11.7336 1.06777 11.9456 0.979969 12.1666 0.979969C14.376 0.982395 16.4942 1.86115 18.0564 3.42343C19.6187 4.9857 20.4975 7.10391 20.4999 9.3133C20.4999 9.53432 20.4121 9.74628 20.2558 9.90256C20.0995 10.0588 19.8876 10.1466 19.6666 10.1466C19.4456 10.1466 19.2336 10.0588 19.0773 9.90256C18.921 9.74628 18.8332 9.53432 18.8332 9.3133C18.8313 7.5458 18.1282 5.85126 16.8784 4.60145C15.6286 3.35164 13.9341 2.64862 12.1666 2.64664C11.9456 2.64664 11.7336 2.55884 11.5773 2.40256C11.421 2.24628 11.3332 2.03432 11.3332 1.8133ZM12.1666 5.97997C13.0506 5.97997 13.8985 6.33116 14.5236 6.95628C15.1487 7.5814 15.4999 8.42925 15.4999 9.3133C15.4999 9.53432 15.5877 9.74628 15.744 9.90256C15.9003 10.0588 16.1122 10.1466 16.3332 10.1466C16.5543 10.1466 16.7662 10.0588 16.9225 9.90256C17.0788 9.74628 17.1666 9.53432 17.1666 9.3133C17.1652 7.98763 16.638 6.71663 15.7006 5.77923C14.7632 4.84184 13.4922 4.31463 12.1666 4.3133C11.9456 4.3133 11.7336 4.4011 11.5773 4.55738C11.421 4.71366 11.3332 4.92562 11.3332 5.14664C11.3332 5.36765 11.421 5.57961 11.5773 5.73589C11.7336 5.89217 11.9456 5.97997 12.1666 5.97997ZM19.7441 14.9291C20.227 15.4134 20.4982 16.0694 20.4982 16.7533C20.4982 17.4372 20.227 18.0932 19.7441 18.5775L18.9857 19.4516C12.1607 25.9858 -4.44759 9.38164 1.98574 2.53497L2.94407 1.70164C3.42888 1.2322 4.07902 0.972509 4.75383 0.978748C5.42864 0.984986 6.07386 1.25665 6.54991 1.73497C6.57574 1.7608 8.11991 3.76664 8.11991 3.76664C8.5781 4.24799 8.83316 4.88741 8.83207 5.55197C8.83099 6.21653 8.57384 6.85511 8.11407 7.33497L7.14907 8.5483C7.68311 9.8459 8.46829 11.0252 9.4595 12.0184C10.4507 13.0116 11.6284 13.7991 12.9249 14.3358L14.1457 13.365C14.6257 12.9056 15.2641 12.6487 15.9285 12.6478C16.5928 12.6469 17.232 12.9019 17.7132 13.36C17.7132 13.36 19.7182 14.9033 19.7441 14.9291ZM18.5974 16.1408C18.5974 16.1408 16.6032 14.6066 16.5774 14.5808C16.4057 14.4106 16.1738 14.3151 15.932 14.3151C15.6902 14.3151 15.4582 14.4106 15.2866 14.5808C15.2641 14.6041 13.5832 15.9433 13.5832 15.9433C13.47 16.0335 13.3352 16.0926 13.1921 16.1148C13.0491 16.137 12.9027 16.1215 12.7674 16.07C11.0878 15.4446 9.56219 14.4656 8.29393 13.1992C7.02568 11.9328 6.04441 10.4087 5.41657 8.72997C5.3609 8.59285 5.34276 8.44338 5.36399 8.29692C5.38523 8.15046 5.44508 8.0123 5.53741 7.89664C5.53741 7.89664 6.87657 6.21497 6.89907 6.1933C7.0693 6.02162 7.16481 5.78965 7.16481 5.54789C7.16481 5.30612 7.0693 5.07415 6.89907 4.90247C6.87324 4.87747 5.33907 2.88164 5.33907 2.88164C5.16482 2.72539 4.93741 2.64171 4.70345 2.64776C4.46948 2.6538 4.24669 2.7491 4.08074 2.91414L3.12241 3.74747C-1.57926 9.4008 12.8132 22.995 17.7674 18.3133L18.5266 17.4383C18.7045 17.2735 18.8113 17.046 18.8245 16.8039C18.8378 16.5618 18.7563 16.324 18.5974 16.1408Z" fill="#004900"/>
</g>
<defs>
<clipPath id="clip0_19_207">
<rect width="20" height="20" fill="white" transform="translate(0.5 0.97998)"/>
</clipPath>
</defs>
</svg>
