<svg width="26" height="26" viewBox="0 0 26 26" fill="none" xmlns="http://www.w3.org/2000/svg">
<g clip-path="url(#clip0_51_247)">
<path d="M20.5417 3.04342H19.5V2.00175C19.5 1.72548 19.3903 1.46053 19.1949 1.26518C18.9996 1.06983 18.7346 0.960083 18.4583 0.960083C18.1821 0.960083 17.9171 1.06983 17.7218 1.26518C17.5264 1.46053 17.4167 1.72548 17.4167 2.00175V3.04342H9.08333V2.00175C9.08333 1.72548 8.97359 1.46053 8.77824 1.26518C8.58289 1.06983 8.31793 0.960083 8.04167 0.960083C7.7654 0.960083 7.50045 1.06983 7.3051 1.26518C7.10975 1.46053 7 1.72548 7 2.00175V3.04342H5.95833C4.57751 3.04507 3.25371 3.59433 2.27731 4.57073C1.30092 5.54712 0.751654 6.87092 0.75 8.25175L0.75 20.7517C0.751654 22.1326 1.30092 23.4564 2.27731 24.4328C3.25371 25.4092 4.57751 25.9584 5.95833 25.9601H20.5417C21.9225 25.9584 23.2463 25.4092 24.2227 24.4328C25.1991 23.4564 25.7483 22.1326 25.75 20.7517V8.25175C25.7483 6.87092 25.1991 5.54712 24.2227 4.57073C23.2463 3.59433 21.9225 3.04507 20.5417 3.04342ZM2.83333 8.25175C2.83333 7.42295 3.16257 6.62809 3.74862 6.04204C4.33468 5.45599 5.12953 5.12675 5.95833 5.12675H20.5417C21.3705 5.12675 22.1653 5.45599 22.7514 6.04204C23.3374 6.62809 23.6667 7.42295 23.6667 8.25175V9.29342H2.83333V8.25175ZM20.5417 23.8767H5.95833C5.12953 23.8767 4.33468 23.5475 3.74862 22.9615C3.16257 22.3754 2.83333 21.5806 2.83333 20.7517V11.3767H23.6667V20.7517C23.6667 21.5806 23.3374 22.3754 22.7514 22.9615C22.1653 23.5475 21.3705 23.8767 20.5417 23.8767Z" fill="#777777"/>
<path d="M13.25 18.1476C14.1129 18.1476 14.8125 17.448 14.8125 16.5851C14.8125 15.7221 14.1129 15.0226 13.25 15.0226C12.3871 15.0226 11.6875 15.7221 11.6875 16.5851C11.6875 17.448 12.3871 18.1476 13.25 18.1476Z" fill="#777777"/>
<path d="M8.0415 18.1476C8.90445 18.1476 9.604 17.448 9.604 16.5851C9.604 15.7221 8.90445 15.0226 8.0415 15.0226C7.17856 15.0226 6.479 15.7221 6.479 16.5851C6.479 17.448 7.17856 18.1476 8.0415 18.1476Z" fill="#777777"/>
<path d="M18.4585 18.1476C19.3214 18.1476 20.021 17.448 20.021 16.5851C20.021 15.7221 19.3214 15.0226 18.4585 15.0226C17.5956 15.0226 16.896 15.7221 16.896 16.5851C16.896 17.448 17.5956 18.1476 18.4585 18.1476Z" fill="#777777"/>
</g>
<defs>
<clipPath id="clip0_51_247">
<rect width="25" height="25" fill="white" transform="translate(0.75 0.960083)"/>
</clipPath>
</defs>
</svg>
