<svg width="27" height="27" viewBox="0 0 27 27" fill="none" xmlns="http://www.w3.org/2000/svg">
<path d="M17.5277 13.4999C17.5277 15.7274 15.7277 17.5274 13.5002 17.5274C11.2727 17.5274 9.47266 15.7274 9.47266 13.4999C9.47266 11.2724 11.2727 9.47241 13.5002 9.47241C15.7277 9.47241 17.5277 11.2724 17.5277 13.4999Z" stroke="#909090" stroke-linecap="round" stroke-linejoin="round"/>
<path d="M13.4998 22.8037C17.4711 22.8037 21.1723 20.4637 23.7486 16.4137C24.7611 14.8275 24.7611 12.1612 23.7486 10.575C21.1723 6.52497 17.4711 4.18497 13.4998 4.18497C9.52857 4.18497 5.82732 6.52497 3.25107 10.575C2.23857 12.1612 2.23857 14.8275 3.25107 16.4137C5.82732 20.4637 9.52857 22.8037 13.4998 22.8037Z" stroke="#909090" stroke-linecap="round" stroke-linejoin="round"/>
</svg>
