<svg width="25" height="26" viewBox="0 0 25 26" fill="none" xmlns="http://www.w3.org/2000/svg">
<g clip-path="url(#clip0_49_35)">
<path d="M12.5 2.3512C15.8375 2.3512 16.2333 2.3637 17.551 2.42412C18.9135 2.48662 20.3167 2.79704 21.3094 3.78975C22.3115 4.79183 22.6125 6.18141 22.675 7.54808C22.7354 8.86579 22.7479 9.26162 22.7479 12.5991C22.7479 15.9366 22.7354 16.3325 22.675 17.6502C22.6135 19.0054 22.2958 20.422 21.3094 21.4085C20.3073 22.4106 18.9188 22.7116 17.551 22.7741C16.2333 22.8345 15.8375 22.847 12.5 22.847C9.1625 22.847 8.76667 22.8345 7.44896 22.7741C6.10417 22.7127 4.66875 22.3877 3.69062 21.4085C2.69375 20.4116 2.3875 19.0085 2.325 17.6502C2.26458 16.3325 2.25208 15.9366 2.25208 12.5991C2.25208 9.26162 2.26458 8.86579 2.325 7.54808C2.38646 6.19808 2.70729 4.77308 3.69062 3.78975C4.69062 2.78975 6.08542 2.48662 7.44896 2.42412C8.76667 2.3637 9.1625 2.3512 12.5 2.3512ZM12.5 0.0991211C9.10521 0.0991211 8.67917 0.113704 7.34583 0.174121C5.41354 0.262663 3.49479 0.800163 2.09792 2.19704C0.695833 3.59912 0.163542 5.5137 0.075 7.44495C0.0145833 8.77829 0 9.20433 0 12.5991C0 15.9939 0.0145833 16.42 0.075 17.7533C0.163542 19.6835 0.703125 21.6075 2.09792 23.0012C3.49896 24.4022 5.41667 24.9356 7.34583 25.0241C8.67917 25.0845 9.10521 25.0991 12.5 25.0991C15.8948 25.0991 16.3208 25.0845 17.6542 25.0241C19.5854 24.9356 21.5062 24.397 22.9021 23.0012C24.3052 21.5981 24.8365 19.6845 24.925 17.7533C24.9854 16.42 25 15.9939 25 12.5991C25 9.20433 24.9854 8.77829 24.925 7.44495C24.8365 5.51266 24.2979 3.59287 22.9021 2.19704C21.5031 0.798079 19.5802 0.261621 17.6542 0.174121C16.3208 0.113704 15.8948 0.0991211 12.5 0.0991211Z" fill="white"/>
<path d="M12.5 6.18018C8.95526 6.18018 6.0813 9.05413 6.0813 12.5989C6.0813 16.1437 8.95526 19.0177 12.5 19.0177C16.0448 19.0177 18.9188 16.1437 18.9188 12.5989C18.9188 9.05413 16.0448 6.18018 12.5 6.18018ZM12.5 16.7656C10.199 16.7656 8.33338 14.9 8.33338 12.5989C8.33338 10.2979 10.199 8.43226 12.5 8.43226C14.8011 8.43226 16.6667 10.2979 16.6667 12.5989C16.6667 14.9 14.8011 16.7656 12.5 16.7656Z" fill="white"/>
<path d="M19.1729 7.42627C20.0013 7.42627 20.6729 6.7547 20.6729 5.92627C20.6729 5.09784 20.0013 4.42627 19.1729 4.42627C18.3444 4.42627 17.6729 5.09784 17.6729 5.92627C17.6729 6.7547 18.3444 7.42627 19.1729 7.42627Z" fill="white"/>
</g>
<defs>
<clipPath id="clip0_49_35">
<rect width="25" height="25" fill="white" transform="translate(0 0.0991211)"/>
</clipPath>
</defs>
</svg>
