<svg width="16" height="26" viewBox="0 0 16 26" fill="none" xmlns="http://www.w3.org/2000/svg">
<path d="M10.1138 21.0928C9.36987 22.2902 8.79924 23.1561 8.60724 23.4443L7.93606 24.4535L7.26488 23.4443C7.07289 23.1561 6.50225 22.2897 5.75834 21.0928C2.81423 21.4014 0.678223 22.318 0.678223 23.401C0.678223 24.7369 3.9277 25.8205 7.93606 25.8205C11.9444 25.8205 15.1939 24.7375 15.1939 23.401C15.1934 22.3175 13.0579 21.4008 10.1138 21.0928Z" fill="white"/>
<path d="M7.93557 0.820435C3.92721 0.820435 0.677734 4.06991 0.677734 8.07828C0.677734 12.0866 7.93557 22.9977 7.93557 22.9977C7.93557 22.9977 15.1934 12.0866 15.1934 8.07828C15.1934 4.06991 11.9439 0.820435 7.93557 0.820435ZM7.93557 11.7075C5.93112 11.7075 4.30639 10.0827 4.30639 8.07828C4.30639 6.07383 5.93112 4.44909 7.93557 4.44909C9.94002 4.44909 11.5648 6.07383 11.5648 8.07828C11.5648 10.0827 9.94002 11.7075 7.93557 11.7075Z" fill="white"/>
</svg>
