<svg width="25" height="25" viewBox="0 0 25 25" fill="none" xmlns="http://www.w3.org/2000/svg">
<g clip-path="url(#clip0_19_172)">
<path d="M19.3116 0.140625H5.76994C4.25098 0.142279 2.7947 0.746418 1.72063 1.82049C0.646564 2.89456 0.0424258 4.35083 0.0407715 5.86979L0.0407715 17.3281C0.0424258 18.8471 0.646564 20.3034 1.72063 21.3774C2.7947 22.4515 4.25098 23.0556 5.76994 23.0573H19.3116C20.8306 23.0556 22.2868 22.4515 23.3609 21.3774C24.435 20.3034 25.0391 18.8471 25.0408 17.3281V5.86979C25.0391 4.35083 24.435 2.89456 23.3609 1.82049C22.2868 0.746418 20.8306 0.142279 19.3116 0.140625ZM19.3116 3.26563C19.9433 3.26773 20.5523 3.50161 21.0231 3.92292L14.2522 10.6938C13.7923 11.133 13.1809 11.3781 12.5449 11.3781C11.909 11.3781 11.2975 11.133 10.8376 10.6938L4.06681 3.92292C4.5354 3.50351 5.14108 3.26976 5.76994 3.26563H19.3116ZM19.3116 19.9323H5.76994C5.07927 19.9323 4.41689 19.6579 3.92851 19.1695C3.44014 18.6812 3.16577 18.0188 3.16577 17.3281V7.45L8.62306 12.9073C9.1374 13.4218 9.74807 13.83 10.4202 14.1085C11.0923 14.387 11.8127 14.5303 12.5403 14.5303C13.2678 14.5303 13.9882 14.387 14.6603 14.1085C15.3324 13.83 15.9431 13.4218 16.4574 12.9073L21.9158 7.45V17.3281C21.9158 18.0188 21.6414 18.6812 21.153 19.1695C20.6647 19.6579 20.0023 19.9323 19.3116 19.9323Z" fill="white"/>
</g>
<defs>
<clipPath id="clip0_19_172">
<rect width="25" height="25" fill="white" transform="translate(0.0407715 -0.900879)"/>
</clipPath>
</defs>
</svg>
