<svg width="25" height="25" viewBox="0 0 25 25" fill="none" xmlns="http://www.w3.org/2000/svg">
<g clip-path="url(#clip0_94_940)">
<path d="M23.9583 11.4583H1.04167C0.46637 11.4583 0 11.9246 0 12.4999C0 13.0752 0.46637 13.5416 1.04167 13.5416H23.9583C24.5336 13.5416 25 13.0752 25 12.4999C25 11.9246 24.5336 11.4583 23.9583 11.4583Z" fill="#004900"/>
<path d="M23.9583 4.16675H1.04167C0.46637 4.16675 0 4.63312 0 5.20841C0 5.78371 0.46637 6.25008 1.04167 6.25008H23.9583C24.5336 6.25008 25 5.78371 25 5.20841C25 4.63312 24.5336 4.16675 23.9583 4.16675Z" fill="#004900"/>
<path d="M23.9583 18.75H1.04167C0.46637 18.75 0 19.2164 0 19.7917C0 20.367 0.46637 20.8333 1.04167 20.8333H23.9583C24.5336 20.8333 25 20.367 25 19.7917C25 19.2164 24.5336 18.75 23.9583 18.75Z" fill="#004900"/>
</g>
<defs>
<clipPath id="clip0_94_940">
<rect width="25" height="25" fill="white"/>
</clipPath>
</defs>
</svg>
