<svg width="102" height="70" viewBox="0 0 102 70" fill="none" xmlns="http://www.w3.org/2000/svg">
<path d="M26.2299 48.1143C20.4199 48.1143 15.6899 52.8442 15.6899 58.6542C15.6899 64.4642 20.4199 69.1943 26.2299 69.1943C32.0399 69.1943 36.77 64.4642 36.77 58.6542C36.77 52.8442 32.0399 48.1143 26.2299 48.1143ZM26.2299 65.9943C22.1799 65.9943 18.89 62.7042 18.89 58.6542C18.89 54.6042 22.1799 51.3143 26.2299 51.3143C30.2799 51.3143 33.5699 54.6042 33.5699 58.6542C33.5699 62.7042 30.2699 65.9943 26.2299 65.9943Z" fill="#004900"/>
<path d="M26.23 54.2544C23.8 54.2544 21.8301 56.2244 21.8301 58.6544C21.8301 61.0844 23.8 63.0544 26.23 63.0544C28.66 63.0544 30.6301 61.0844 30.6301 58.6544C30.6301 56.2244 28.66 54.2544 26.23 54.2544Z" fill="#004900"/>
<path d="M80.1201 48.1143C74.3101 48.1143 69.5801 52.8442 69.5801 58.6542C69.5801 64.4642 74.3101 69.1943 80.1201 69.1943C85.9301 69.1943 90.66 64.4642 90.66 58.6542C90.66 52.8442 85.9401 48.1143 80.1201 48.1143ZM80.1201 65.9943C76.0701 65.9943 72.7801 62.7042 72.7801 58.6542C72.7801 54.6042 76.0701 51.3143 80.1201 51.3143C84.1701 51.3143 87.4601 54.6042 87.4601 58.6542C87.4601 62.7042 84.1701 65.9943 80.1201 65.9943Z" fill="#004900"/>
<path d="M80.1199 54.2544C77.6899 54.2544 75.72 56.2244 75.72 58.6544C75.72 61.0844 77.6899 63.0544 80.1199 63.0544C82.5499 63.0544 84.52 61.0844 84.52 58.6544C84.52 56.2244 82.5599 54.2544 80.1199 54.2544Z" fill="#004900"/>
<path d="M100.23 27.0744L91.39 23.3744C90.26 21.3644 85.98 13.9344 82.62 11.0144C82.33 10.7644 81.96 10.6244 81.57 10.6244H68.46V1.86438C68.46 0.98438 67.74 0.264404 66.86 0.264404H2.37C1.49 0.264404 0.77002 0.98438 0.77002 1.86438V40.9744C0.77002 41.8544 1.49 42.5744 2.37 42.5744H5.15002V54.2644C5.15002 55.1444 5.87 55.8644 6.75 55.8644H13.81C14.49 55.8644 15.09 55.4344 15.32 54.8044C16.96 50.1944 21.34 47.1044 26.23 47.1044C31.11 47.1044 35.49 50.2044 37.13 54.8044C37.36 55.4444 37.96 55.8644 38.64 55.8644H67.71C68.39 55.8644 68.99 55.4344 69.22 54.8044C70.86 50.1944 75.24 47.1044 80.13 47.1044C85.02 47.1044 89.39 50.2044 91.04 54.8044C91.27 55.4444 91.87 55.8644 92.55 55.8644H99.63C100.51 55.8644 101.23 55.1444 101.23 54.2644V41.1544V28.5644C101.22 27.9044 100.83 27.3244 100.23 27.0744ZM68.48 13.8144H80.94C84.3 17.0844 88.81 25.3044 88.85 25.3944C89.02 25.7144 89.3 25.9644 89.64 26.1044L98.01 29.6144V39.5444H68.48V13.8144ZM3.97003 8.1344H8.02002V34.8144H3.97003V8.1344ZM10.08 8.1344H14.38V34.8144H10.08V8.1344ZM16.44 8.1344H20.74V34.8144H16.44V8.1344ZM22.8 8.1344H27.1V34.8144H22.8V8.1344ZM29.17 8.1344H33.47V34.8144H29.17V8.1344ZM35.53 8.1344H39.83V34.8144H35.53V8.1344ZM41.89 8.1344H46.19V34.8144H41.89V8.1344ZM48.26 8.1344H52.56V34.8144H48.26V8.1344ZM54.62 8.1344H58.92V34.8144H54.62V8.1344ZM60.99 8.1344H65.26V34.8144H60.99V8.1344ZM3.97003 3.45441H65.26V5.84436H3.97003V3.45441ZM3.97003 39.3644V37.1044H65.26V39.3644H3.97003ZM98.01 52.6444H93.62C91.26 47.3544 85.97 43.8744 80.12 43.8744C74.27 43.8744 68.98 47.3544 66.62 52.6444H39.71C37.35 47.3544 32.06 43.8744 26.21 43.8744C20.36 43.8744 15.07 47.3544 12.71 52.6444H8.33002V42.7344H66.86H97.99V52.6444H98.01Z" fill="#004900"/>
<path d="M78.8699 16.5745H70.4299V26.5745H85.9999L85.9199 26.4344C84.1699 23.5144 81.1399 19.0245 78.8699 16.5745Z" fill="#004900"/>
<path d="M77.77 30.3843H72.7V32.2242H77.77V30.3843Z" fill="#004900"/>
</svg>
