<svg width="69" height="69" viewBox="0 0 69 69" fill="none" xmlns="http://www.w3.org/2000/svg">
    <path d="M68.9574 67.1295V18.0295C68.9574 18.0295 68.9574 18.0295 68.9574 18.0195C68.9574 17.9795 68.9574 17.9395 68.9474 17.8995C68.9474 17.8895 68.9474 17.8695 68.9474 17.8595C68.9374 17.8095 68.9374 17.7595 68.9274 17.7095C68.9174 17.6795 68.9174 17.6495 68.9074 17.6295C68.8974 17.6095 68.8974 17.5794 68.8874 17.5594C68.8774 17.5294 68.8674 17.5095 68.8574 17.4795C68.8474 17.4595 68.8374 17.4295 68.8274 17.4095C68.8174 17.3895 68.8074 17.3695 68.7974 17.3495C68.7874 17.3195 68.7774 17.2995 68.7574 17.2695C68.7474 17.2495 68.7374 17.2395 68.7274 17.2195C68.7074 17.1895 68.6874 17.1595 68.6674 17.1295C68.6374 17.0895 68.6074 17.0495 68.5774 17.0095C68.5674 16.9995 68.5574 16.9895 68.5474 16.9795C68.5274 16.9495 68.4974 16.9195 68.4674 16.8995C68.4674 16.8995 68.4674 16.8995 68.4674 16.8895L52.5074 1.20947C52.4974 1.19947 52.4774 1.18949 52.4674 1.16949C52.4474 1.14949 52.4174 1.1295 52.3974 1.1095C52.3774 1.0895 52.3574 1.07945 52.3374 1.05945C52.3174 1.03945 52.2974 1.02946 52.2674 1.00946C52.2474 0.98946 52.2174 0.979482 52.1974 0.969482C52.1774 0.959482 52.1574 0.939443 52.1374 0.929443C52.1174 0.919443 52.0874 0.909465 52.0674 0.889465C52.0474 0.879465 52.0174 0.869497 51.9974 0.859497C51.9774 0.849497 51.9474 0.839468 51.9274 0.829468C51.9074 0.819468 51.8774 0.8095 51.8574 0.7995C51.8374 0.7895 51.8074 0.78948 51.7774 0.77948C51.7474 0.76948 51.7274 0.76946 51.6974 0.75946C51.6674 0.74946 51.6374 0.749451 51.6174 0.749451C51.5974 0.749451 51.5674 0.739441 51.5474 0.739441C51.5174 0.739441 51.4774 0.739492 51.4474 0.729492C51.4274 0.729492 51.4174 0.729492 51.3974 0.729492H2.46743C1.58743 0.729492 0.867432 1.44947 0.867432 2.32947V51.4294C0.867432 51.4294 0.867432 51.4295 0.867432 51.4395C0.867432 51.4795 0.867434 51.5194 0.877434 51.5594C0.877434 51.5694 0.877434 51.5895 0.877434 51.5995C0.887434 51.6495 0.88743 51.6995 0.89743 51.7495C0.90743 51.7794 0.907435 51.8095 0.917435 51.8295C0.927435 51.8495 0.927431 51.8795 0.937431 51.8995C0.947431 51.9295 0.95743 51.9495 0.96743 51.9795C0.97743 51.9995 0.987437 52.0295 0.997437 52.0495C1.00744 52.0695 1.01744 52.0895 1.02744 52.1095C1.03744 52.1395 1.04744 52.1595 1.06744 52.1895C1.07744 52.2095 1.08743 52.2194 1.09743 52.2394C1.11744 52.2694 1.13743 52.2995 1.15743 52.3295C1.18743 52.3695 1.21744 52.4095 1.24744 52.4495C1.25744 52.4595 1.26744 52.4694 1.27744 52.4894C1.29744 52.5194 1.32743 52.5495 1.35743 52.5695C1.35743 52.5695 1.35743 52.5695 1.35743 52.5795L17.3174 68.2595C17.3274 68.2695 17.3474 68.2795 17.3574 68.2995C17.3774 68.3195 17.4074 68.3395 17.4274 68.3595C17.4474 68.3795 17.4674 68.3895 17.4874 68.3995C17.5074 68.4195 17.5274 68.4295 17.5574 68.4495C17.5774 68.4595 17.6074 68.4794 17.6274 68.4894C17.6474 68.4994 17.6674 68.5195 17.6874 68.5295C17.7074 68.5395 17.7374 68.5495 17.7574 68.5695C17.7774 68.5795 17.8074 68.5895 17.8274 68.5995C17.8474 68.6095 17.8774 68.6195 17.8974 68.6295C17.9174 68.6395 17.9474 68.6495 17.9674 68.6595C17.9874 68.6695 18.0174 68.6694 18.0474 68.6794C18.0774 68.6894 18.0974 68.6895 18.1274 68.6995C18.1574 68.7095 18.1874 68.7095 18.2174 68.7095C18.2374 68.7095 18.2574 68.7195 18.2874 68.7195C18.3374 68.7295 18.3874 68.7295 18.4474 68.7295H67.3774C68.2474 68.7295 68.9574 68.0195 68.9574 67.1295ZM20.0274 19.6395H34.9774V44.3595L39.9274 41.3094L43.1074 44.3595L46.3474 41.4294L50.5674 44.3595V19.6395H65.7574V65.5395H20.0274V19.6395ZM16.8274 63.3094L4.07743 50.7795V5.77948L16.8274 18.6895V63.3094ZM6.76743 3.94946H20.8374L33.0774 16.4294H19.0974L6.76743 3.94946ZM63.4474 16.4294H49.2374L36.5674 3.94946H50.7574L63.4474 16.4294Z" fill="#004900"/>
    <path d="M46.3975 53.1696V62.8296C46.3975 63.1496 46.6575 63.3996 46.9675 63.3996H63.8075C64.1275 63.3996 64.3775 63.1396 64.3775 62.8296V53.1696C64.3775 52.8496 64.1175 52.5996 63.8075 52.5996H46.9675C46.6575 52.5996 46.3975 52.8596 46.3975 53.1696ZM47.5475 53.7496H63.2475V62.2696H47.5475V53.7496Z" fill="#004900"/>
    <path d="M62.2975 54.7495H61.3975V61.3395H62.2975V54.7495Z" fill="#004900"/>
    <path d="M49.3474 54.7495H48.5874V61.3395H49.3474V54.7495Z" fill="#004900"/>
    <path d="M60.7474 54.7495H59.8474V61.3395H60.7474V54.7495Z" fill="#004900"/>
    <path d="M57.3275 54.7495H56.4275V61.3395H57.3275V54.7495Z" fill="#004900"/>
    <path d="M54.1474 54.7495H53.3875V61.3395H54.1474V54.7495Z" fill="#004900"/>
    <path d="M52.8474 54.7495H52.0874V61.3395H52.8474V54.7495Z" fill="#004900"/>
    <path d="M55.8274 54.7495H54.5674V61.3395H55.8274V54.7495Z" fill="#004900"/>
    <path d="M59.3874 54.7495H57.9374V61.3395H59.3874V54.7495Z" fill="#004900"/>
    <path d="M51.4474 54.7495H49.9974V61.3395H51.4474V54.7495Z" fill="#004900"/>
</svg>
