<svg width="77" height="80" viewBox="0 0 77 80" fill="none" xmlns="http://www.w3.org/2000/svg">
<path d="M2.09451 3.82756L14.9145 7.76757L22.2845 26.1175C22.1245 26.2875 21.9945 26.4875 21.9145 26.7275L18.3145 37.7676C18.1945 38.1276 18.2145 38.5175 18.3545 38.8675L28.3845 63.4576C28.0045 64.6576 27.8045 65.9275 27.8045 67.2375C27.8045 74.2175 33.4845 79.8975 40.4645 79.8975C47.4445 79.8975 53.1245 74.2175 53.1245 67.2375C53.1245 66.1175 52.9745 65.0376 52.7045 64.0076L75.5645 54.2576C76.3745 53.9076 76.7545 52.9675 76.4045 52.1575C76.0545 51.3475 75.1145 50.9676 74.3045 51.3176L51.4945 61.0475C51.0245 60.2175 50.4745 59.4475 49.8445 58.7475L71.3045 49.8675C71.5845 49.7475 71.8045 49.5275 71.9245 49.2475C72.0445 48.9675 72.0445 48.6475 71.9245 48.3675L60.8245 21.5375C60.5845 20.9575 59.9145 20.6775 59.3345 20.9175L57.0745 21.8575L49.2245 2.89751C49.1045 2.61751 48.8845 2.39751 48.6045 2.27751C48.3245 2.15751 48.0145 2.15751 47.7245 2.27751L27.3245 10.7175C27.0445 10.8375 26.8245 11.0575 26.7045 11.3375C26.5845 11.6175 26.5845 11.9375 26.7045 12.2175L34.5545 31.1775L31.9245 32.2676C31.3445 32.5076 31.0645 33.1776 31.3045 33.7576L39.9245 54.5975C39.0345 54.6375 38.1745 54.7675 37.3445 54.9775L17.6245 5.86754C17.4445 5.41754 17.0745 5.07755 16.6045 4.93755L3.0545 0.777515C2.2145 0.517515 1.3145 0.997512 1.0545 1.83751C0.7745 2.66751 1.24451 3.56756 2.09451 3.82756ZM29.2345 12.3975L34.8845 10.0575L37.0645 15.3276L44.0545 12.4375L41.8745 7.16753L47.5245 4.82756L54.9145 22.6875L36.6245 30.2576L29.2345 12.3975ZM40.4545 57.7875C40.7145 57.7875 40.9845 57.7976 41.2445 57.8276C42.2045 57.9076 43.1345 58.1275 43.9945 58.4775C44.0845 58.5175 44.1645 58.5475 44.2545 58.5875C45.1245 58.9675 45.9145 59.4775 46.6245 60.0875C47.3645 60.7275 48.0145 61.4776 48.5245 62.3176C49.0745 63.2176 49.4845 64.2275 49.7145 65.2975C49.8445 65.9275 49.9145 66.5775 49.9145 67.2475C49.9145 72.4575 45.6745 76.6976 40.4645 76.6976C35.2545 76.6976 31.0145 72.4575 31.0145 67.2475C31.0145 63.8275 32.8345 60.8275 35.5645 59.1675C36.4645 58.6175 37.4745 58.2175 38.5445 57.9875C39.1545 57.8575 39.7945 57.7875 40.4545 57.7875ZM33.8345 33.9375L41.7845 30.6475L44.8645 38.0875L54.2545 34.1976L51.1745 26.7576L59.1245 23.4675L69.3545 48.1875L47.9445 57.0475C46.3545 55.8775 44.4745 55.0575 42.4345 54.7375L33.8345 33.9375ZM30.3045 59.6875L26.6445 50.7175L31.0745 47.9975L34.3545 56.1575C32.7545 57.0375 31.3745 58.2476 30.3045 59.6875ZM25.4145 47.7175L21.5345 38.1976L24.0445 30.5076L29.8545 44.9775L25.4145 47.7175Z" fill="#004900"/>
<path d="M40.4545 72.6776C43.4645 72.6776 45.8945 70.2376 45.8945 67.2376C45.8945 67.1276 45.8945 67.0176 45.8845 66.9076C45.8145 65.7776 45.4045 64.7476 44.7545 63.9076C43.7545 62.6176 42.2045 61.7876 40.4445 61.7876C40.3145 61.7876 40.1845 61.7976 40.0545 61.8076C38.9345 61.8876 37.9045 62.3076 37.0645 62.9676C35.8045 63.9676 34.9945 65.5076 34.9945 67.2376C35.0045 70.2476 37.4445 72.6776 40.4545 72.6776Z" fill="#004900"/>
</svg>
