<svg width="83" height="82" viewBox="0 0 83 82" fill="none" xmlns="http://www.w3.org/2000/svg">
<path d="M81.1158 34.3221H70.9458C70.8358 34.2121 70.6958 34.1221 70.5558 34.0521L46.8458 22.6321C47.1458 21.9021 47.3158 21.1021 47.3158 20.2621C47.3158 17.3521 45.3258 14.8921 42.6258 14.1821V11.2321L48.5058 3.2121C48.8658 2.7221 48.9158 2.08211 48.6458 1.54211C48.3758 1.00211 47.8258 0.662109 47.2158 0.662109H34.8458C34.2458 0.662109 33.6858 1.00211 33.4158 1.54211C33.1458 2.08211 33.1958 2.7221 33.5558 3.2121L39.4358 11.2321V15.2721C39.4358 15.3421 39.4458 15.4021 39.4458 15.4721C39.4458 15.5121 39.4358 15.5421 39.4358 15.5821C39.4358 16.4621 40.1558 17.1821 41.0358 17.1821C42.7358 17.1821 44.1158 18.5621 44.1158 20.2621C44.1158 21.9621 42.7358 23.3421 41.0358 23.3421C40.4158 23.3421 39.8258 23.1621 39.3158 22.8221C39.2458 22.7721 39.1758 22.7221 39.1158 22.6721C39.0158 22.5421 38.8958 22.4321 38.7658 22.3521C38.6158 22.1921 38.4858 22.0121 38.3758 21.8221C37.9258 21.0621 36.9458 20.8021 36.1858 21.2421C35.5458 21.6121 35.2658 22.3621 35.4458 23.0521L12.5858 34.0621C12.4358 34.1321 12.3058 34.2221 12.1958 34.3321H2.02579C1.14579 34.3321 0.425781 35.0521 0.425781 35.9321V40.4221C0.425781 41.3021 1.14579 42.0221 2.02579 42.0221H3.88577V73.6121H2.02579C1.14579 73.6121 0.425781 74.3321 0.425781 75.2121V79.7021C0.425781 80.5821 1.14579 81.3021 2.02579 81.3021H81.1458C82.0258 81.3021 82.7458 80.5821 82.7458 79.7021V75.2121C82.7458 74.3321 82.0258 73.6121 81.1458 73.6121H79.2858V42.0221H81.1458C82.0258 42.0221 82.7458 41.3021 82.7458 40.4221V35.9321C82.7158 35.0421 81.9958 34.3221 81.1158 34.3221ZM37.9758 3.86212H44.0358L41.0058 7.99213L37.9758 3.86212ZM79.5158 78.0921H3.60577V76.8021H79.5158V78.0921ZM7.05579 42.0121H10.7658V73.5821H7.05579V42.0121ZM68.6258 73.5821H64.0758V42.0121H68.6258V73.5821ZM14.4858 42.0121H19.0358V73.5821H14.4858V42.0121ZM60.3558 73.5821H55.8058V42.0121H60.3558V73.5821ZM52.0958 73.5821H47.5458V42.0121H52.0958V73.5821ZM43.8258 73.5821H39.2758V42.0121H43.8258V73.5821ZM35.5658 73.5821H31.0158V42.0121H35.5658V73.5821ZM27.2958 73.5821H22.7458V42.0121H27.2958V73.5821ZM76.0558 73.5821H72.3458V42.0121H76.0558V73.5821ZM79.5158 38.8121H77.8658H5.24579H3.59576V37.5221H79.5058V38.8121H79.5158ZM37.6158 25.5421C38.6258 26.1921 39.7958 26.5421 41.0158 26.5421C42.4558 26.5421 43.7858 26.0521 44.8458 25.2321L63.7158 34.3221H19.3858L37.6158 25.5421Z" fill="#004900"/>
</svg>
