<svg width="69" height="83" viewBox="0 0 69 83" fill="none" xmlns="http://www.w3.org/2000/svg">
<path d="M34.2764 82.0873C52.8764 82.0873 68.0164 66.9573 68.0164 48.3473C68.0164 39.4473 64.5464 31.3372 58.8964 25.2972C61.5964 20.8472 64.8564 14.8073 64.8564 11.4673C64.8564 5.53729 60.0264 0.707275 54.0964 0.707275C48.1664 0.707275 43.3364 5.53729 43.3364 11.4673C43.3364 12.7373 43.8064 14.3873 44.5264 16.1973C41.2964 15.1673 37.8564 14.6072 34.2764 14.6072C27.9764 14.6072 22.0864 16.3372 17.0364 19.3572C15.4664 16.7272 12.5964 14.9573 9.31641 14.9573C4.36641 14.9573 0.336426 18.9873 0.336426 23.9373C0.336426 26.2373 2.17641 30.0473 4.06641 33.3473C1.81641 37.8673 0.546387 42.9673 0.546387 48.3473C0.536387 66.9573 15.6764 82.0873 34.2764 82.0873ZM14.8564 49.9473C15.0564 53.3873 15.8964 56.9073 17.3464 60.4473C14.1664 61.7073 11.2864 63.3172 8.84637 65.2272C5.89637 60.8072 4.07638 55.5773 3.78638 49.9473H14.8564ZM19.7864 38.7573C23.7564 40.0573 28.1264 40.8473 32.6664 41.0673V46.7473H18.0564C18.2364 43.9773 18.8664 41.2973 19.7864 38.7573ZM50.4864 46.7473H35.8764V41.1273C40.4464 41.0773 44.8764 40.4473 48.9564 39.3073C49.7664 41.6772 50.3164 44.1773 50.4864 46.7473ZM48.3964 58.8773C44.4764 57.8373 40.2364 57.2573 35.8764 57.2073V49.9573H50.4864C50.2864 53.0773 49.5064 56.0673 48.3964 58.8773ZM18.0664 49.9473H32.6764V57.2573C28.3464 57.4673 24.1864 58.1973 20.3664 59.3873C19.1364 56.4373 18.2764 53.2673 18.0664 49.9473ZM32.6764 60.4673V76.4673C29.7664 73.7173 25.0264 68.6773 21.7264 62.3073C25.1264 61.2973 28.8264 60.6673 32.6764 60.4673ZM35.8764 76.4673V60.4073C39.7764 60.4573 43.5564 60.9373 47.0664 61.8273C43.7564 68.4173 38.8564 73.6473 35.8764 76.4673ZM35.8764 37.9172V20.0173C39.0764 23.0873 44.4964 28.9873 47.7764 36.3073C44.0664 37.3172 40.0364 37.8772 35.8764 37.9172ZM32.6764 20.0273V37.8572C28.5564 37.6472 24.6064 36.9372 21.0164 35.7972C24.3164 28.7172 29.5464 23.0373 32.6764 20.0273ZM10.7564 67.7972C10.7664 67.7872 10.7764 67.7873 10.7864 67.7773C13.0364 66.0073 15.7064 64.5272 18.6764 63.3672C20.0964 66.2072 21.9064 69.0273 24.0864 71.8173C26.3364 74.6873 28.5764 77.0073 30.2764 78.6273C22.4564 77.5973 15.5564 73.5972 10.7564 67.7972ZM38.2764 78.6273C39.9864 77.0073 42.2164 74.6873 44.4664 71.8173C46.8064 68.8373 48.7164 65.7973 50.1864 62.7573C53.2964 63.8073 56.1264 65.1973 58.5364 66.8773C53.7164 73.1673 46.5064 77.5373 38.2764 78.6273ZM60.3464 64.2272C57.7564 62.4272 54.7564 60.9473 51.4564 59.8073C52.7464 56.4873 53.4964 53.1773 53.6864 49.9473H64.7564C64.4964 55.1573 62.9164 60.0272 60.3464 64.2272ZM53.6964 46.7473C53.5364 43.9873 52.9664 41.1773 51.9964 38.3273C55.3664 37.1173 58.4164 35.5373 61.0164 33.6273C63.1864 37.5573 64.5164 42.0073 64.7664 46.7473H53.6964ZM61.6464 11.4772C61.6464 13.7072 59.1864 18.5673 56.5264 23.0173C55.9564 23.9673 55.3864 24.8973 54.8164 25.7873C54.5664 26.1773 54.3264 26.5572 54.0864 26.9272C53.3764 25.8472 52.6364 24.6573 51.8964 23.4373C50.7964 21.6173 49.7164 19.7072 48.8264 17.9272C47.4764 15.2572 46.5364 12.8672 46.5364 11.4872C46.5364 7.31724 49.9264 3.92725 54.0964 3.92725C58.2564 3.91725 61.6464 7.30723 61.6464 11.4772ZM46.4664 20.3572C48.9864 25.1772 52.1964 29.8673 52.7664 30.6973C53.0664 31.1273 53.5564 31.3873 54.0864 31.3873C54.6164 31.3873 55.1064 31.1273 55.4064 30.6973C55.6364 30.3673 56.2764 29.4272 57.1264 28.1172C57.9064 28.9972 58.6464 29.9273 59.3164 30.8973C56.9064 32.7073 54.0264 34.2073 50.8464 35.3473C49.3064 31.8073 47.1764 28.2573 44.4764 24.7673C42.3364 21.9973 40.1964 19.7372 38.5264 18.1072C41.3164 18.5072 43.9764 19.2672 46.4664 20.3572ZM30.0364 18.1072C28.3664 19.7372 26.2264 21.9973 24.0864 24.7673C21.5464 28.0373 19.5164 31.3673 18.0064 34.6873C16.8564 34.2073 15.7464 33.6872 14.7064 33.1072C17.1264 28.8672 18.3064 25.8573 18.3064 23.9373C18.3064 23.4173 18.2564 22.9172 18.1764 22.4172C21.7064 20.2172 25.7264 18.7172 30.0364 18.1072ZM9.31641 18.1672C11.4864 18.1672 13.3764 19.3673 14.3664 21.1373C14.8264 21.9673 15.0964 22.9273 15.0964 23.9473C15.0964 24.1373 15.0564 24.3873 14.9864 24.7073C14.6864 25.9873 13.7564 28.2873 11.9964 31.4473C11.5164 32.3073 10.9664 33.2273 10.3664 34.2073C10.0364 34.7373 9.69642 35.2773 9.32642 35.8373C8.74642 34.9473 8.21639 34.1072 7.73639 33.2972C7.03639 32.1372 6.43639 31.0772 5.92639 30.1072C4.24639 26.9172 3.54639 24.7773 3.54639 23.9473C3.53639 20.7573 6.12641 18.1672 9.31641 18.1672ZM6.06641 36.6672C7.01641 38.1672 7.7664 39.2672 7.9964 39.6072C8.2964 40.0372 8.78641 40.2972 9.31641 40.2972C9.84641 40.2972 10.3364 40.0372 10.6364 39.6072C10.6964 39.5272 11.7464 37.9872 13.0664 35.8672C14.2464 36.5173 15.4964 37.1173 16.7964 37.6573C15.6864 40.7273 15.0364 43.7773 14.8564 46.7573H3.78638C3.96638 43.1973 4.76641 39.8072 6.06641 36.6672Z" fill="#004900"/>
<path d="M7.83643 27.4073C8.29643 27.5773 8.7864 27.6772 9.3064 27.6772C11.6464 27.6772 13.5464 25.7773 13.5464 23.4373C13.5464 22.9173 13.4464 22.4173 13.2764 21.9573C12.6764 20.3473 11.1264 19.1973 9.3064 19.1973C6.9664 19.1973 5.06641 21.0973 5.06641 23.4373C5.07641 25.2573 6.22643 26.8073 7.83643 27.4073ZM9.31641 21.4872C10.3964 21.4872 11.2664 22.3673 11.2664 23.4373C11.2664 23.5373 11.2564 23.6273 11.2464 23.7173C11.1264 24.5673 10.4464 25.2372 9.59637 25.3672C9.50637 25.3772 9.4064 25.3873 9.3064 25.3873C8.2264 25.3873 7.35638 24.5073 7.35638 23.4373C7.35638 22.3573 8.23641 21.4872 9.31641 21.4872Z" fill="#004900"/>
<path d="M54.0865 15.8372C56.8365 15.8372 59.0765 13.5972 59.0765 10.8472C59.0765 8.09723 56.8365 5.85718 54.0865 5.85718C51.3365 5.85718 49.0964 8.09723 49.0964 10.8472C49.0964 13.6072 51.3365 15.8372 54.0865 15.8372ZM54.0865 8.14722C55.5765 8.14722 56.7864 9.35723 56.7864 10.8472C56.7864 12.3372 55.5765 13.5472 54.0865 13.5472C52.5965 13.5472 51.3865 12.3372 51.3865 10.8472C51.3865 9.35723 52.5965 8.14722 54.0865 8.14722Z" fill="#004900"/>
</svg>
