<svg width="63" height="85" viewBox="0 0 63 85" fill="none" xmlns="http://www.w3.org/2000/svg">
<path d="M11.9108 10.2272H5.27081C2.81081 10.2272 0.800781 12.2273 0.800781 14.6973V80.2772C0.800781 82.7372 2.80081 84.7473 5.27081 84.7473H57.5608C60.0208 84.7473 62.0308 82.7472 62.0308 80.2772V14.6973C62.0308 12.2373 60.0308 10.2272 57.5608 10.2272H50.9208C50.8008 7.76723 48.8808 5.80725 46.5308 5.80725H42.2308C41.6708 2.60725 38.8708 0.167236 35.5108 0.167236H28.2808C24.9208 0.167236 22.1208 2.60725 21.5608 5.80725H16.2808C13.9508 5.80725 12.0308 7.76723 11.9108 10.2272ZM50.7208 17.0673H53.9608V74.9872H8.79077V17.0673H12.1108C12.6808 18.9473 14.3408 20.3173 16.3008 20.3173H46.5408C48.4908 20.3173 50.1608 18.9573 50.7208 17.0673ZM58.8208 14.6973V80.2772C58.8208 80.9772 58.2508 81.5372 57.5608 81.5372H5.27081C4.57081 81.5372 4.0108 80.9672 4.0108 80.2772V14.6973C4.0108 13.9973 4.58081 13.4373 5.27081 13.4373H11.9008V13.8773H7.1908C6.3108 13.8773 5.59082 14.5972 5.59082 15.4772V76.5972C5.59082 77.4772 6.3108 78.1973 7.1908 78.1973H55.5708C56.4508 78.1973 57.1708 77.4772 57.1708 76.5972V15.4772C57.1708 14.5972 56.4508 13.8773 55.5708 13.8773H50.9408V13.4373H57.5708C58.2608 13.4273 58.8208 13.9973 58.8208 14.6973ZM15.1008 10.4772C15.1008 9.66723 15.6408 9.01721 16.3008 9.01721H23.0808C23.9608 9.01721 24.6808 8.29724 24.6808 7.41724V6.99725C24.6808 5.00725 26.3008 3.37726 28.3008 3.37726H35.5308C37.5208 3.37726 39.1508 4.99725 39.1508 6.99725V7.41724C39.1508 8.30724 39.8708 9.01721 40.7508 9.01721H46.5508C47.2108 9.01721 47.7508 9.67723 47.7508 10.4772V11.8273V15.6472C47.7508 16.4572 47.2108 17.1072 46.5508 17.1072H16.3108C15.6508 17.1072 15.1108 16.4472 15.1108 15.6472V11.8273V10.4772H15.1008Z" fill="#004900"/>
<path d="M31.1009 13.0372C33.6809 13.0372 35.7809 10.9372 35.7809 8.35724C35.7809 5.77724 33.6809 3.67725 31.1009 3.67725C28.5209 3.67725 26.4209 5.77724 26.4209 8.35724C26.4209 10.9372 28.5209 13.0372 31.1009 13.0372ZM31.1009 6.88727C31.9109 6.88727 32.5809 7.54725 32.5809 8.36725C32.5809 9.17725 31.9209 9.84723 31.1009 9.84723C30.2909 9.84723 29.6209 9.18725 29.6209 8.36725C29.6209 7.54725 30.2909 6.88727 31.1009 6.88727Z" fill="#004900"/>
<path d="M11.3809 29.1073C11.3809 29.9873 12.1008 30.7073 12.9808 30.7073H49.1108C49.9908 30.7073 50.7109 29.9873 50.7109 29.1073C50.7109 28.2273 49.9908 27.5073 49.1108 27.5073H12.9808C12.0908 27.5073 11.3809 28.2273 11.3809 29.1073Z" fill="#004900"/>
<path d="M34.6409 38.6172H12.9808C12.1008 38.6172 11.3809 39.3372 11.3809 40.2172C11.3809 41.0972 12.1008 41.8172 12.9808 41.8172H34.6409C35.5209 41.8172 36.2408 41.0972 36.2408 40.2172C36.2408 39.3372 35.5209 38.6172 34.6409 38.6172Z" fill="#004900"/>
<path d="M34.6409 50.7974H12.9808C12.1008 50.7974 11.3809 51.5173 11.3809 52.3973C11.3809 53.2773 12.1008 53.9974 12.9808 53.9974H34.6409C35.5209 53.9974 36.2408 53.2773 36.2408 52.3973C36.2408 51.5173 35.5209 50.7974 34.6409 50.7974Z" fill="#004900"/>
<path d="M34.6409 62.9673H12.9808C12.1008 62.9673 11.3809 63.6873 11.3809 64.5673C11.3809 65.4473 12.1008 66.1673 12.9808 66.1673H34.6409C35.5209 66.1673 36.2408 65.4473 36.2408 64.5673C36.2408 63.6873 35.5209 62.9673 34.6409 62.9673Z" fill="#004900"/>
<path d="M46.5909 35.0474L42.531 39.2974L41.411 37.7774C40.891 37.0674 39.8809 36.9174 39.1709 37.4374C38.4609 37.9574 38.3109 38.9674 38.8309 39.6774L41.0809 42.7274C41.3609 43.1074 41.7909 43.3474 42.2709 43.3774C42.3009 43.3774 42.3409 43.3774 42.3709 43.3774C42.8109 43.3774 43.221 43.1974 43.531 42.8874L48.911 37.2674C49.521 36.6274 49.5009 35.6174 48.8609 35.0074C48.2209 34.3774 47.2109 34.4074 46.5909 35.0474Z" fill="#004900"/>
<path d="M46.5909 47.7572L42.531 52.0072L41.411 50.4872C40.891 49.7772 39.8809 49.6271 39.1709 50.1471C38.4609 50.6671 38.3109 51.6772 38.8309 52.3872L41.0809 55.4372C41.3609 55.8172 41.7909 56.0571 42.2709 56.0871C42.3009 56.0871 42.3409 56.0871 42.3709 56.0871C42.8109 56.0871 43.221 55.9072 43.531 55.5972L48.911 49.9772C49.521 49.3372 49.5009 48.3272 48.8609 47.7172C48.2209 47.0972 47.2109 47.1172 46.5909 47.7572Z" fill="#004900"/>
<path d="M46.5909 60.4674L42.531 64.7174L41.411 63.1974C40.891 62.4874 39.8809 62.3374 39.1709 62.8574C38.4609 63.3774 38.3109 64.3874 38.8309 65.0974L41.0809 68.1474C41.3609 68.5274 41.7909 68.7674 42.2709 68.7974C42.3009 68.7974 42.3409 68.7974 42.3709 68.7974C42.8109 68.7974 43.221 68.6174 43.531 68.3074L48.911 62.6874C49.521 62.0474 49.5009 61.0374 48.8609 60.4274C48.2209 59.8074 47.2109 59.8274 46.5909 60.4674Z" fill="#004900"/>
</svg>
