<svg width="136" height="109" viewBox="0 0 136 109" fill="none" xmlns="http://www.w3.org/2000/svg">
<path d="M0.282715 51.2373C0.325145 51.1524 0.367574 51.0817 0.381718 50.9968C0.707012 48.8188 1.42832 46.7822 2.55978 44.9011C4.18625 42.1998 6.3926 40.1066 9.09396 38.4801C19.2205 32.4268 29.3329 26.3876 39.4454 20.306C46.0361 16.3459 52.5986 12.3434 59.1752 8.36911C60.8017 7.37909 62.4847 6.53049 64.2809 5.89405C67.3076 4.8333 70.4049 4.08371 73.5872 3.73013C74.9308 3.57456 76.2885 3.4897 77.6463 3.41898C78.1413 3.39069 78.5373 3.2634 78.8909 2.90982C79.2303 2.57039 79.6263 2.27338 80.0082 1.99051C81.7054 0.717621 83.6289 0.123604 85.7504 0.279179C87.292 0.392325 88.678 0.88734 89.9226 1.82079C90.8419 2.51381 91.5208 3.41898 92.1431 4.36658C92.3835 4.7343 92.6664 4.94645 93.0907 5.07374C95.5092 5.83748 97.8994 6.71436 100.233 7.76096C104.872 9.84001 108.988 12.6404 112.326 16.5156C114.108 18.5664 115.748 20.7303 116.88 23.2195C117.502 24.6056 118.039 26.034 118.633 27.4342C122.056 35.4817 125.465 43.5292 128.901 51.5767C130.188 54.5892 131.475 57.5876 132.777 60.5718C133.555 62.3539 133.724 64.1784 133.243 66.0736C133.187 66.2716 133.201 66.5261 133.272 66.7241C133.696 67.8132 134.149 68.8881 134.615 69.9629C134.87 70.557 134.856 71.1793 134.686 71.7591C134.53 72.2683 134.431 72.7492 134.446 73.2866C134.488 75.493 134.516 77.7134 134.53 79.9198C134.53 80.5279 134.502 81.1502 134.417 81.7584C134.106 83.9789 132.89 85.4498 130.768 86.157C129.863 86.4681 128.916 86.553 127.968 86.5671C127.317 86.5813 126.667 86.5671 126.016 86.5954C125.521 86.6095 125.507 86.6237 125.38 87.1045C124.984 88.4764 124.517 89.8342 123.838 91.0929C122.41 93.7377 120.274 95.3642 117.247 95.7319C116.498 95.8168 115.748 95.9017 114.999 95.9865C115.324 96.1421 115.677 96.2269 116.031 96.3259C120.472 97.514 124.927 98.7162 129.368 99.89C130.712 100.244 132.069 100.583 133.413 100.937C133.696 101.007 133.979 101.121 134.233 101.276C134.714 101.573 134.743 102.096 134.29 102.422C134.021 102.62 133.71 102.761 133.385 102.846C132.451 103.058 131.504 103.27 130.542 103.398C128.661 103.666 126.78 103.864 124.913 104.105C122.282 104.43 119.638 104.755 117.007 105.081C114.984 105.321 112.948 105.561 110.925 105.788C108.818 106.028 106.725 106.269 104.617 106.523C102.595 106.764 100.558 107.004 98.5358 107.259C96.7821 107.471 95.0425 107.711 93.2887 107.938C91.9875 108.107 90.7288 107.966 89.5266 107.443C89.3286 107.358 89.1164 107.273 88.9043 107.202C83.5016 105.279 78.113 103.341 72.682 101.46C65.7518 99.0697 58.8216 96.6654 51.8631 94.3883C40.0959 90.5414 28.2298 87.0055 16.3353 83.5687C14.426 83.0172 12.5166 82.4939 10.6073 81.9564C9.70212 81.7018 8.78281 81.4473 7.89178 81.1502C7.09976 80.8957 6.5906 80.3158 6.25116 79.5662C6.12388 79.2833 6.01073 78.9863 5.88344 78.6752C5.69958 78.6328 5.52986 78.6045 5.346 78.562C4.35597 78.3782 3.36594 78.2226 2.39006 78.0104C1.49903 77.8266 1.20203 77.4871 1.11717 76.5678C1.06059 75.9597 1.07474 75.3374 1.07474 74.7292C1.07474 74.3473 1.07474 73.9513 1.07474 73.5553C0.820158 73.3997 0.579723 73.2442 0.325145 73.0886C0.282715 65.8048 0.282715 58.5211 0.282715 51.2373ZM99.936 68.3365C99.5966 66.413 99.2854 64.4895 98.9318 62.5802C98.6631 61.1093 98.2388 59.695 97.6307 58.3372C95.3112 53.2456 93.3736 48.0126 91.3935 42.7796C89.965 38.9751 88.4517 35.1988 86.9525 31.4226C85.8352 28.594 84.7179 25.7653 83.544 22.9508C82.5398 20.5464 81.3094 18.2552 79.796 16.1338C78.1979 13.885 76.3309 11.9191 73.9407 10.4906C71.7768 9.20357 69.4432 8.48226 66.8974 8.53883C65.7094 8.56712 64.5213 8.63784 63.3474 8.75098C61.7917 8.89242 60.3774 9.48643 59.0338 10.2926C43.1792 19.8534 27.3246 29.4143 11.47 38.9751C10.678 39.456 9.87184 39.9227 9.07981 40.4177C6.40674 42.0583 4.56812 44.4061 3.28108 47.2348C3.12551 47.5883 2.96993 47.9419 2.78607 48.3945C2.95579 48.3521 3.01236 48.3379 3.06893 48.3096C6.47746 46.5842 9.88598 44.8445 13.3086 43.1332C28.9511 35.2696 44.6359 27.5049 60.3774 19.8393C61.3391 19.3726 62.3008 18.8634 63.2767 18.4108C64.2809 17.9441 65.3416 17.8168 66.4307 17.9582C67.6894 18.128 68.6936 18.7785 69.4573 19.7686C69.7685 20.1787 70.1221 20.3343 70.6171 20.3767C72.3143 20.5182 73.9407 20.9849 75.4965 21.6496C77.9857 22.6962 79.9092 24.4217 81.4367 26.628C82.8086 28.594 83.841 30.7296 84.633 32.9784C85.4958 35.4251 86.2454 37.9143 87.0374 40.3894C87.094 40.5591 87.1222 40.743 87.1647 40.9551C86.1746 40.941 85.2695 40.842 84.3643 40.6581C80.2486 39.8378 76.7835 37.9143 74.068 34.6897C72.7668 33.1481 71.9324 31.3377 71.395 29.4143C70.8009 27.2645 70.2776 25.1006 69.7119 22.9508C69.5422 22.3002 69.33 21.6638 69.0896 21.0556C68.3541 19.2311 66.0205 18.4108 64.493 18.9483C63.8283 19.1887 63.1636 19.4433 62.5413 19.7403C55.9364 22.9508 49.3315 26.2037 42.7124 29.4143C32.3172 34.4493 21.9926 39.5974 11.6822 44.8021C8.76866 46.273 5.88344 47.8005 2.87093 49.0875C2.60221 49.2007 2.47492 49.3845 2.4042 49.6532C2.12134 50.8271 1.96576 52.0293 1.95162 53.2456C1.93747 56.8522 1.95162 60.4587 1.95162 64.0511C1.95162 64.4612 1.95162 64.8572 1.95162 65.3098C2.22034 65.3098 2.41834 65.324 2.61635 65.3098C14.7088 64.3056 26.7872 63.3298 38.9362 62.3397C38.9362 62.0003 38.9362 61.6609 38.9362 61.3356C38.9503 55.353 38.9645 49.3704 38.9786 43.3878C38.9786 40.4884 38.9645 37.5891 38.9503 34.6897C38.9503 33.9967 38.9786 33.3178 38.9645 32.6248C38.9645 32.1722 39.1342 31.8752 39.5726 31.6913C41.4396 30.871 43.2923 30.0083 45.1592 29.1738C45.8522 28.8627 46.5736 28.594 47.2807 28.3111C47.4504 28.2404 47.6343 28.1979 47.8606 28.1272C47.8889 28.4525 47.9313 28.7212 47.9313 29.0041C47.9454 30.6447 47.9596 32.2712 47.9454 33.9118C47.9313 42.9776 47.9172 52.0434 47.903 61.1093C47.903 61.279 47.9172 61.4346 47.9313 61.6609C48.6385 61.6184 49.3315 61.5901 50.0104 61.5336C52.938 61.2931 55.8515 61.0244 58.7792 60.7981C61.5513 60.5718 64.3375 60.3738 67.1096 60.1758C69.33 60.0061 71.5505 59.8505 73.771 59.6949C75.2702 59.5818 76.7694 59.4545 78.2686 59.3414C82.6105 58.9878 86.4999 60.1758 89.9226 62.8489C91.4642 64.0511 92.9068 65.3664 94.406 66.611C96.1032 68.0253 97.857 69.3689 99.7946 70.4721C99.9219 70.5428 100.049 70.6135 100.191 70.6842C100.219 70.6984 100.261 70.6842 100.346 70.6842C100.205 69.8922 100.063 69.1143 99.936 68.3365ZM101.562 72.1127C99.5966 71.4621 97.857 70.3872 96.2588 69.1143C94.4909 67.7 92.7937 66.2008 91.0541 64.7441C90.2479 64.0652 89.4276 63.3863 88.5648 62.764C86.6414 61.378 84.4492 60.6708 82.1438 60.2607C80.5881 59.992 79.0464 60.0202 77.4907 60.19C75.7935 60.3597 74.0822 60.4728 72.385 60.6001C69.6695 60.8123 66.9398 61.0244 64.2243 61.2366C62.0746 61.4063 59.9248 61.5619 57.775 61.7174C55.0595 61.9296 52.3299 62.1417 49.6144 62.3539C49.0769 62.3963 48.5395 62.4387 47.9596 62.4953C47.9596 66.5403 47.9596 70.5428 47.9596 74.6019C48.1576 74.6161 48.3697 74.6443 48.5819 74.6585C50.9155 74.7575 53.2633 74.8848 55.5969 74.9555C58.0154 75.0404 60.4056 75.3657 62.7959 75.691C64.9598 75.9738 67.1378 76.2284 69.33 76.4264C72.2294 76.6951 75.1429 76.879 78.014 77.3599C80.3476 77.7559 82.5964 78.463 84.8169 79.2409C88.9326 80.6977 92.8927 82.5221 96.7962 84.4739C97.7862 84.9689 98.8187 85.4074 99.837 85.8317C100.191 85.9872 100.587 86.0297 101.025 86.1428C102.241 81.6311 102.496 77.0487 102.524 72.3956C102.157 72.2966 101.86 72.2117 101.562 72.1127ZM92.8644 44.689C93.7837 47.0226 94.6747 49.3562 95.6223 51.6757C96.5841 54.0094 97.6024 56.3147 98.5783 58.6483C98.8753 59.3697 99.1016 60.1051 99.3703 60.8406C99.3986 60.8971 99.4269 60.9678 99.4834 61.1093C99.6107 60.8405 99.6956 60.6425 99.7804 60.4445C100.12 59.6525 100.558 58.9312 101.209 58.3513C102.751 56.9936 104.391 57.0784 105.749 58.6201C106.597 59.5818 107.05 60.7415 107.234 61.9862C107.474 63.5985 107.333 65.1825 106.696 66.6817C106.456 67.2616 106.131 67.8132 105.749 68.3082C104.716 69.6376 103.217 69.9347 101.732 69.1285C101.435 68.9588 101.138 68.7749 100.756 68.5345C100.94 69.4679 101.11 70.3024 101.28 71.1793C101.944 71.4763 102.666 71.6036 103.401 71.6318C104.038 71.6601 104.66 71.6318 105.296 71.6177C107.658 71.5611 110.006 71.4904 112.368 71.4338C116.682 71.3348 120.981 71.2641 125.295 71.1651C127.713 71.1086 130.118 71.0237 132.536 70.9388C132.621 70.9388 132.72 70.9247 132.89 70.9105C132.564 70.0054 132.211 69.1426 131.843 68.2375C131.631 68.4213 131.475 68.5628 131.306 68.7042C130.075 69.7508 128.732 69.7225 127.558 68.6193C126.653 67.7707 126.115 66.6959 125.818 65.4937C125.422 63.8672 125.479 62.2549 126.059 60.6708C126.624 59.1575 127.671 58.2099 129.326 58.0119C129.382 58.0119 129.439 57.9836 129.524 57.9553C128.025 53.8538 126.214 49.8937 124.545 45.9194C113.867 45.0991 103.231 44.293 92.4401 43.4585C92.6523 43.9959 92.7371 44.3495 92.8644 44.689ZM123.173 42.6948C121.943 39.8237 120.712 36.9668 119.482 34.0957C118.577 32.0025 117.672 29.9093 116.781 27.8019C116.639 27.4483 116.413 27.2503 116.045 27.1089C113.867 26.2745 111.618 25.7087 109.355 25.2561C106.668 24.7046 103.939 24.3227 101.209 24.0681C98.2105 23.7994 95.2122 23.5731 92.1997 23.8135C90.4883 23.955 88.777 24.2803 87.0798 24.5207C86.7687 24.5631 86.4716 24.6056 86.1181 24.6621C88.381 30.4043 90.6439 36.104 92.8785 41.7472C103.175 42.525 113.415 43.2888 123.725 44.0525C123.513 43.5858 123.357 43.1332 123.173 42.6948ZM89.7246 22.3992C91.4784 22.2295 93.2463 22.1305 95.0142 22.1163C96.7538 22.1022 98.5076 22.1588 100.247 22.2861C101.987 22.4134 103.726 22.6114 105.452 22.8659C107.192 23.1205 108.931 23.46 110.657 23.7852C112.354 24.1105 113.966 24.8318 115.833 25.1147C115.593 24.6056 115.437 24.2095 115.239 23.8418C114.291 22.0739 113.132 20.4333 111.887 18.8493C108.464 14.4931 104.108 11.3958 99.0591 9.23185C97.3195 8.48226 95.5375 7.84581 93.7696 7.16694C93.614 7.11037 93.4584 7.08208 93.218 7.01136C93.4301 7.76096 93.6281 8.45397 93.8261 9.17528C93.6847 9.246 93.5574 9.33086 93.4301 9.38743C91.8319 10.0522 90.1913 10.1512 88.5224 9.65615C85.2695 8.68027 82.059 7.59124 78.8767 6.36077C78.6504 6.27591 78.4383 6.17691 78.212 6.07791C77.8018 5.90819 77.4341 5.69604 77.4907 5.17274C75.1429 4.90402 65.9357 6.75678 64.196 7.8741C64.5072 7.83167 64.7335 7.80338 64.9598 7.7751C69.9806 7.13865 74.1529 8.8217 77.6746 12.3575C79.1596 13.8567 80.3901 15.5539 81.4932 17.3501C82.5257 19.0473 83.4309 20.8152 84.237 22.6396C84.3077 22.8094 84.3926 22.9649 84.4775 23.1347C86.2737 22.8659 87.9991 22.5689 89.7246 22.3992ZM121.236 86.751C117.643 86.9348 114.037 87.1328 110.444 87.3308C108.889 87.4157 107.333 87.4864 105.777 87.5713C104.646 87.642 103.514 87.741 102.397 87.8259C100.742 87.9673 99.1864 87.6703 97.7014 86.9348C96.0325 86.1145 94.3777 85.2659 92.6947 84.4881C89.2154 82.8616 85.6655 81.3765 81.9882 80.2592C79.4707 79.4955 76.8967 78.9015 74.2802 78.5762C73.8983 78.5337 73.5023 78.5762 73.0921 78.5762C73.0639 78.8025 73.2477 78.9439 73.3609 79.0995C75.3975 82.0837 77.7877 84.7851 80.3476 87.3308C81.9317 88.9007 83.5299 90.4565 85.128 91.9981C86.0756 92.9174 87.1222 93.7236 88.2113 94.459C89.7246 95.4632 91.3652 96.0431 93.1897 95.9582C94.604 95.8875 96.0042 95.7885 97.4044 95.6754C99.2854 95.5198 101.181 95.3359 103.062 95.1662C105.579 94.954 108.097 94.7419 110.614 94.5439C111.972 94.4308 113.316 94.3883 114.673 94.261C115.72 94.162 116.781 94.0347 117.813 93.8367C119.044 93.5963 120.09 92.974 120.953 92.0547C122.367 90.5555 123.202 88.7735 123.697 86.7651C122.82 86.7368 122.028 86.7085 121.236 86.751ZM103.811 86.0862C105.791 85.9731 107.771 85.8175 109.766 85.6902C113.415 85.4639 117.063 85.2376 120.727 85.0538C123.117 84.9406 125.521 84.8982 127.911 84.8133C128.491 84.7992 129.071 84.7992 129.623 84.6719C131.178 84.3042 132.211 83.3424 132.649 81.8008C132.876 80.9805 132.89 80.1461 132.89 79.3116C132.876 77.0487 132.861 74.7858 132.847 72.5087C132.847 72.3107 132.847 72.1127 132.847 71.844C122.961 71.9006 113.16 72.2541 103.288 72.4663C103.274 72.6926 103.26 72.8906 103.26 73.0745C103.161 75.2101 103.104 77.3457 102.963 79.4813C102.835 81.5745 102.51 83.6536 101.973 85.6902C101.944 85.8175 101.916 85.9448 101.888 86.0862C102.553 86.1004 103.175 86.1287 103.811 86.0862ZM17.198 74.0362C17.198 74.1493 17.1839 74.1918 17.198 74.2201C17.8345 75.6202 18.4568 77.0346 19.1074 78.4206C19.461 79.1843 19.9135 79.8774 20.4793 80.5138C21.144 81.2775 21.9643 81.815 22.9543 82.013C24.0858 82.2393 25.2173 82.4373 26.3487 82.6353C28.4561 83.003 30.5493 83.3566 32.6566 83.696C35.6125 84.1769 38.5543 84.6578 41.5103 85.0962C42.9529 85.3084 44.3389 85.6761 45.7108 86.157C46.22 86.3408 46.7433 86.454 47.2666 86.5954C48.0303 86.7934 48.7658 86.6803 49.4022 86.2418C50.0528 85.7892 50.7317 85.3366 51.2833 84.7709C53.7018 82.2817 55.5262 79.3823 56.8981 76.2001C56.9264 76.1435 56.9264 76.087 56.9547 75.9455C43.6742 75.3232 30.4361 74.6726 17.198 74.0362ZM1.9799 72.4097C2.37592 72.4522 2.77193 72.4946 3.15379 72.5087C4.94999 72.5936 6.74618 72.6502 8.55651 72.7492C10.9892 72.8764 13.4076 73.032 15.8403 73.1593C17.5658 73.2583 19.2912 73.329 21.0167 73.4139C24.6374 73.5836 28.2439 73.7675 31.8646 73.9372C34.0144 74.0362 36.1641 74.1211 38.3139 74.2059C38.4695 74.2059 38.6392 74.2059 38.8655 74.2059C38.7948 70.5428 38.9928 66.9363 38.9079 63.259C26.5609 64.0935 14.3128 65.1684 1.9799 66.1018C1.9799 68.2233 1.9799 70.2882 1.9799 72.4097ZM46.4038 29.485C44.2682 30.4467 42.1467 31.4226 40.0111 32.3843C39.6716 32.5399 39.6717 32.7662 39.6717 33.0491C39.6717 36.5849 39.6717 40.1066 39.6717 43.6424C39.6717 48.8754 39.6575 54.1225 39.6434 59.3555C39.6434 60.3031 39.6434 61.2507 39.6434 62.269C39.8414 62.2832 40.0394 62.3256 40.2232 62.3114C41.2274 62.2549 42.2316 62.2124 43.2216 62.1276C44.4096 62.0427 45.5835 61.9154 46.7716 61.8164C46.8564 61.8023 46.9554 61.7882 47.0686 61.7599C47.111 50.9403 47.1534 40.149 47.1817 29.2304C46.8423 29.3294 46.616 29.386 46.4038 29.485ZM49.4022 90.0322C46.2058 89.3533 43.0095 88.7169 39.8272 87.9531C35.3014 86.8641 30.8038 85.6619 26.278 84.5305C24.9627 84.2052 23.6474 83.8799 22.332 83.5829C21.2289 83.3425 20.2671 82.8616 19.5458 81.9706C19.2912 81.6594 18.9801 81.4755 18.5699 81.4048C17.9901 81.3058 17.4102 81.1502 16.8445 80.9805C16.5899 80.9098 16.3919 80.924 16.1797 81.0654C15.6847 81.3907 15.1473 81.5745 14.525 81.518C14.5815 81.5463 14.6523 81.5745 14.7088 81.6028C14.7795 81.6311 14.8503 81.6453 14.921 81.6735C20.7763 83.4273 26.6174 85.1952 32.4727 86.9207C35.9661 87.939 39.4878 88.8583 42.9812 89.8625C48.0727 91.3192 53.0794 93.0023 58.0862 94.7136C67.8167 98.0373 77.5331 101.389 87.2495 104.741C88.0415 105.01 88.8194 105.321 89.5973 105.618C91.0116 106.156 92.4542 106.226 93.9393 106.042C95.9901 105.802 98.0267 105.547 100.077 105.293C100.601 105.222 101.124 105.123 101.647 104.939C101.548 104.883 101.435 104.826 101.336 104.784C92.8927 102.026 84.435 99.2677 75.9915 96.4957C74.9873 96.1704 73.9832 96.1845 72.9649 96.2977C72.5406 96.3401 72.1163 96.3684 71.692 96.3967C70.8858 96.4249 70.1503 96.227 69.4856 95.7744C69.0189 95.4632 68.5946 95.0955 68.1279 94.7985C67.6894 94.5156 67.251 94.2186 66.7701 94.0489C65.3982 93.568 64.0122 93.1579 62.6403 92.7194C61.523 92.3658 60.4198 91.9981 59.3166 91.6162C59.0762 91.5314 58.8782 91.5173 58.6377 91.6445C57.082 92.5073 55.6394 92.2385 54.3099 91.1212C53.9705 90.8384 53.6593 90.5131 53.2916 90.1453C51.948 90.5838 50.6751 90.3009 49.4022 90.0322ZM67.4207 92.6346C67.845 93.2851 68.3824 93.865 68.9057 94.4308C69.4007 94.9541 70.023 95.2935 70.7161 95.4773C72.0173 95.8026 73.0921 95.4208 73.9832 94.4449C75.0439 93.271 75.6662 91.8708 76.0481 90.3575C76.5007 88.5472 76.5714 86.6803 76.5431 84.8275C76.5431 84.6153 76.3875 84.3749 76.2461 84.2052C75.2278 82.904 74.1953 81.617 73.1911 80.3017C72.8093 79.8066 72.4557 79.2833 72.1021 78.76C71.9607 78.5479 71.8051 78.4206 71.5222 78.4065C70.0796 78.2933 68.637 78.1802 67.1944 78.0387C66.7984 77.9963 66.5721 78.1377 66.4024 78.4772C66.0064 79.2692 65.7801 80.1178 65.6528 80.9664C65.4548 82.2534 65.3134 83.5405 65.2144 84.3749C65.2851 87.5996 65.8649 90.2585 67.4207 92.6346ZM111.236 100.258C108.139 99.3526 105.042 98.4474 101.93 97.5564C101.025 97.3018 100.092 97.0614 99.1299 97.1745C98.352 97.2594 97.5882 97.3726 96.8104 97.4433C95.7355 97.5423 94.6606 97.6554 93.5857 97.7261C91.1389 97.8676 88.9184 97.1887 86.9242 95.7885C85.9766 95.1379 85.1139 94.36 84.2229 93.6387C84.0532 93.4973 83.8976 93.3841 83.6289 93.3983C82.3135 93.469 80.9982 93.5256 79.6829 93.5963C79.1879 93.6246 78.6787 93.6529 78.1837 93.7094C78.0281 93.7236 77.8584 93.7943 77.7594 93.9075C77.3634 94.3317 76.9957 94.7702 76.5997 95.2369C76.6704 95.2793 76.7411 95.3359 76.8118 95.3501C80.7154 96.5947 84.633 97.811 88.5366 99.0697C93.3453 100.611 98.1398 102.181 102.949 103.737C103.444 103.893 103.939 104.076 104.419 104.246C105.381 104.586 106.385 104.628 107.39 104.515C109.412 104.274 111.449 104.034 113.471 103.765C114.956 103.567 116.455 103.355 117.94 103.143C118.45 103.072 118.973 103.03 119.496 102.973C119.638 102.959 119.779 102.931 119.906 102.917C119.906 102.874 119.892 102.846 119.892 102.804C117.007 101.941 114.122 101.092 111.236 100.258ZM71.3384 23.2478C71.8758 25.1713 72.385 27.1089 72.9649 29.0324C73.8559 31.96 75.5106 34.3644 78.014 36.1747C79.4 37.1789 80.9134 37.9002 82.5398 38.4094C83.3036 38.6498 84.0673 38.8619 84.8735 39.1024C84.8876 38.9468 84.93 38.8195 84.9159 38.7205C84.8735 38.4659 84.831 38.1972 84.7462 37.9568C83.9117 35.7221 83.0914 33.4734 82.1862 31.2529C81.5781 29.7537 80.7578 28.3535 79.7395 27.0948C77.8443 24.7753 75.3975 23.3044 72.5547 22.4699C72.1162 22.3426 71.6637 22.2295 71.0979 22.0881C71.1969 22.5689 71.2535 22.9084 71.3384 23.2478ZM46.9271 74.6302C47.0686 74.0362 47.0969 63.0328 46.9696 62.5519C44.5369 62.7499 42.1043 62.9479 39.6858 63.1318C39.5444 63.9521 39.6009 73.6968 39.7565 74.2766C42.1467 74.4039 44.5369 74.5171 46.9271 74.6302ZM57.7043 78.2085C56.9264 79.8774 55.9081 81.4048 54.8191 82.8899C54.1402 83.8092 53.4189 84.7143 52.6834 85.6054C52.4854 85.8458 52.4147 86.0438 52.5279 86.355C52.9239 87.5571 53.3482 88.7452 54.1826 89.721C54.5362 90.1453 54.9746 90.5131 55.4131 90.8242C56.1202 91.3192 56.8981 91.3617 57.676 90.9515C58.2134 90.6686 58.6519 90.2868 59.0055 89.8059C59.6561 88.929 59.9813 87.8966 60.2359 86.85C60.6744 84.9548 60.6178 83.0596 60.3066 81.1502C60.1652 80.2875 59.9813 79.4389 59.7833 78.5903C59.6985 78.2085 59.5429 77.8549 59.4015 77.4871C59.26 77.1336 59.0196 76.8931 58.5953 76.7941C58.1852 77.2043 57.9306 77.7134 57.7043 78.2085ZM78.9333 5.51218C81.6629 6.3042 84.2936 7.37909 86.9525 8.35497C88.2537 8.83584 89.5832 9.17528 90.9692 9.10456C91.5632 9.07628 92.1431 8.96313 92.7371 8.89242C92.723 8.77927 92.723 8.7227 92.6947 8.68027C91.9027 7.36495 91.1531 6.00719 90.2903 4.7343C89.1447 3.03711 87.4758 2.13194 85.4392 1.93394C84.6755 1.86322 83.9117 1.96223 83.1904 2.18852C81.3518 2.76839 79.9658 3.97057 78.6929 5.38489C78.8202 5.44146 78.8767 5.48389 78.9333 5.51218ZM105.381 97.019C107.078 97.514 108.761 98.009 110.459 98.4899C113.867 99.4657 117.276 100.427 120.684 101.389C121.476 101.616 122.268 101.814 123.032 102.068C123.725 102.309 124.418 102.351 125.125 102.266C126.539 102.096 127.954 101.884 129.368 101.686C129.396 101.686 129.425 101.644 129.538 101.573C129.312 101.488 129.142 101.418 128.972 101.375C127.077 100.852 125.182 100.314 123.287 99.791C119.227 98.6737 115.154 97.5847 111.095 96.4532C110.459 96.2694 109.822 96.2411 109.172 96.2977C107.672 96.4249 106.173 96.5805 104.688 96.722C104.688 96.7644 104.688 96.8068 104.688 96.8493C104.914 96.9058 105.155 96.9482 105.381 97.019ZM101.393 65.9887C101.69 66.7383 102.157 67.3323 102.835 67.7707C103.076 67.9263 103.302 67.9546 103.571 67.8697C104.179 67.6859 104.589 67.2757 104.9 66.7524C105.579 65.5785 105.82 64.2915 105.777 62.9479C105.749 62.1417 105.593 61.3639 105.268 60.6284C104.999 60.0061 104.589 59.4828 104.009 59.1009C103.741 58.9171 103.472 58.8888 103.175 59.0019C102.51 59.2424 102.043 59.7091 101.718 60.3173C101.166 61.3214 100.954 62.3963 100.94 63.5419C100.968 64.3764 101.082 65.2108 101.393 65.9887ZM127.572 66.3847C127.869 66.9646 128.279 67.4172 128.859 67.7283C129.198 67.9122 129.524 67.898 129.863 67.7283C130.372 67.4879 130.74 67.106 131.023 66.6393C131.942 65.0835 132.126 63.4429 131.631 61.7174C131.532 61.3638 131.391 61.0103 131.235 60.6708C130.995 60.1192 130.584 59.7374 130.075 59.4404C129.594 59.1575 129.156 59.2141 128.703 59.4545C128.237 59.7091 127.911 60.1051 127.657 60.5718C127.162 61.5053 126.978 62.5236 126.935 63.5985C126.964 64.5602 127.133 65.5078 127.572 66.3847ZM2.4042 76.681C4.21454 76.978 6.03902 77.176 7.84935 77.4589C8.00493 76.8931 8.01907 75.0262 7.87764 74.1918C6.09559 73.9655 4.28525 73.8948 2.4042 73.7533C2.4042 74.7575 2.4042 75.6768 2.4042 76.681ZM12.9409 74.5595C12.7995 75.4647 12.7995 76.2991 12.9268 77.1477C13.0258 77.77 13.1955 78.3782 13.5208 78.9298C13.7471 79.3116 14.0299 79.6652 14.4401 79.8774C14.9493 80.1319 15.3594 80.0754 15.7413 79.6369C16.5333 78.7318 16.7455 77.671 16.4909 76.5113C16.3494 75.9173 16.0949 75.3515 15.8827 74.7292C14.8503 74.6868 13.9168 74.6161 12.9409 74.5595ZM8.7828 74.3191C8.57066 75.691 8.6838 76.9638 9.39096 78.1519C9.46168 78.265 9.5324 78.364 9.61726 78.463C10.183 79.0853 10.8619 79.0995 11.3427 78.4065C11.6115 78.0246 11.8095 77.5579 11.9226 77.0911C12.1206 76.2567 12.0923 75.3939 11.9509 74.4746C10.8901 74.4605 9.87183 74.2201 8.7828 74.3191ZM61.1411 88.4623C61.6644 87.3167 61.9331 86.1004 62.018 84.8558C62.1736 82.5929 61.8483 80.3724 61.2684 78.1943C61.2118 77.9963 61.1552 77.7983 61.0704 77.6144C60.9007 77.2184 60.8582 77.2043 60.2925 77.2184C61.5513 81.1785 61.8483 85.1669 60.5329 89.1978C60.5895 89.2119 60.6602 89.2119 60.7168 89.226C60.8582 88.9715 61.028 88.731 61.1411 88.4623ZM65.1719 90.3999C65.0022 89.9898 64.6769 89.8483 64.2385 89.8342C63.404 89.8059 62.5837 89.7352 61.7493 89.721C61.5654 89.721 61.3391 89.7918 61.1977 89.9049C60.9855 90.0746 60.8299 90.3009 60.5754 90.5979C62.3433 91.1212 64.0405 91.6304 65.7235 92.1254C65.7659 92.0971 65.7942 92.0547 65.8367 92.0264C65.6245 91.489 65.4124 90.9515 65.1719 90.3999ZM75.8218 93.9499C76.8542 92.8043 77.3634 91.4182 77.618 89.9473C77.8018 88.8159 77.8584 87.6561 77.9998 86.5247C78.0564 86.0721 77.8443 85.8034 77.42 85.5488C77.3775 85.8034 77.3351 86.0155 77.321 86.2277C77.2503 87.2318 77.2503 88.236 77.0947 89.226C76.826 90.9798 76.3027 92.6628 75.2136 94.1055C75.1005 94.261 75.0156 94.4449 74.9166 94.6146C74.9591 94.657 75.0015 94.6853 75.0581 94.7278C75.2985 94.459 75.5814 94.2186 75.8218 93.9499ZM65.2285 77.7842C64.1819 77.6852 63.206 77.5861 62.1877 77.4871C62.2301 78.2085 62.4423 78.8025 62.6261 79.3823C62.6544 79.4813 62.7959 79.5945 62.8949 79.6086C63.404 79.6935 63.9132 79.7501 64.4789 79.8208C64.7335 79.1278 64.9598 78.4913 65.2285 77.7842ZM12.3328 79.5804C11.9933 79.7784 11.6963 79.9622 11.3852 80.1178C10.579 80.4997 9.84355 80.3441 9.17882 79.7501C9.06567 79.6511 8.93838 79.5521 8.88181 79.4248C8.57066 78.8025 8.0615 78.7883 7.45334 78.9298C7.56649 79.3682 7.77864 79.7076 8.23122 79.8491C9.03738 80.1036 9.85769 80.3441 10.678 80.5704C11.8236 80.8815 12.9692 81.1644 14.1148 81.4473C13.3369 80.9522 12.8419 80.2451 12.3328 79.5804ZM78.6363 91.5455C78.3534 92.2385 78.4241 92.3658 79.1737 92.3517C80.3193 92.3376 81.4791 92.3093 82.6247 92.281C82.4974 91.5173 82.2994 91.3475 81.6205 91.3617C80.6588 91.3758 79.697 91.3617 78.7353 91.3617C78.6787 91.4748 78.6504 91.5031 78.6363 91.5455ZM52.344 88.8866C52.2733 88.3492 52.0046 87.9531 51.8348 87.4581C50.5902 87.8117 49.3881 88.1653 48.2 88.5047C49.5578 88.8159 50.9297 88.9573 52.344 88.8866ZM79.1737 89.9332C79.6405 90.0746 80.6446 90.0605 81.3377 89.9191C81.1821 89.4523 80.4608 88.632 79.6688 88.038C79.2586 88.6179 79.301 89.2968 79.1737 89.9332ZM63.305 80.9947C63.0929 80.9805 62.9656 81.0795 62.909 81.2917C62.81 81.716 62.8241 82.1403 62.9514 82.5504C63.0363 82.8474 63.2909 82.9747 63.701 82.9889C64.0122 83.003 64.097 82.7767 64.1678 82.5504C64.3092 82.0837 64.295 81.617 64.2385 81.1078C63.9132 81.0654 63.602 81.023 63.305 80.9947ZM64.5638 88.6886C64.4789 88.2643 64.4082 87.9107 64.3375 87.5006C63.8 87.444 63.2767 87.3874 62.7393 87.3308C62.5837 87.7127 62.4564 88.0239 62.3008 88.434C63.0929 88.5189 63.7859 88.5896 64.5638 88.6886ZM63.6727 84.2193C63.1353 84.191 62.9797 84.3183 62.9231 84.8699C62.8949 85.1104 62.909 85.3508 62.909 85.5912C62.909 85.7185 62.9373 85.8458 62.9514 86.0014C63.2909 86.0438 63.6162 86.0721 63.998 86.1145C64.2243 85.4781 64.2102 84.8841 64.0122 84.2618C63.8849 84.2335 63.7859 84.2193 63.6727 84.2193ZM18.3295 80.2734C18.3719 79.7218 18.0608 79.4248 17.8203 79.057C17.4385 79.2692 17.4102 79.6511 17.2122 80.0612C17.6223 80.1461 17.9618 80.2026 18.3295 80.2734Z" fill="#004900"/>
<path d="M89.357 107.697C89.159 107.612 88.9469 107.527 88.7489 107.47C87.1082 106.891 85.4535 106.297 83.8412 105.731C80.1356 104.416 76.3028 103.044 72.5266 101.742L71.579 101.417C65.0731 99.1684 58.355 96.8489 51.7077 94.6708C39.1485 90.5693 26.7024 86.8921 16.194 83.8513C15.0767 83.526 13.9452 83.2148 12.8562 82.9037C12.0783 82.6915 11.258 82.4511 10.466 82.2248L10.2821 82.1682C9.44769 81.9278 8.58495 81.6873 7.73636 81.4045C6.94433 81.1499 6.33617 80.57 5.94016 79.679C5.84116 79.481 5.77044 79.283 5.68559 79.0567C5.67144 79.0001 5.64316 78.9577 5.62901 78.9011C5.61487 78.9011 5.61487 78.9011 5.60072 78.9011C5.48758 78.8728 5.36029 78.8445 5.233 78.8304C4.92185 78.7738 4.6107 78.7173 4.29955 78.6607C3.63481 78.5475 2.9418 78.4202 2.27706 78.2788C1.27289 78.0667 0.876882 77.6282 0.792022 76.5816C0.749592 76.129 0.749592 75.6623 0.749592 75.2097C0.749592 75.0542 0.749592 74.8844 0.749592 74.7289C0.749592 74.4601 0.749592 74.1914 0.749592 73.9227C0.749592 73.852 0.749592 73.7813 0.749592 73.7106L0 73.2438V51.1804L0.0282866 51.1238C0.0424298 51.0955 0.056573 51.0672 0.0707162 51.0248C0.0848595 50.9965 0.0990031 50.9682 0.113146 50.9541C0.438441 48.7336 1.18803 46.6545 2.31949 44.7593C3.90354 42.1145 6.13817 39.9223 8.93853 38.2534C18.1458 32.7517 28.8381 26.359 39.2899 20.0794C43.8441 17.3497 48.4548 14.5352 52.924 11.8338C54.9606 10.6034 56.9831 9.37292 59.0198 8.14246C60.816 7.05343 62.5131 6.23312 64.1679 5.65324C67.2794 4.56422 70.4334 3.82877 73.5307 3.47519C75.0158 3.30547 76.4867 3.22061 77.604 3.16404C78.0707 3.13575 78.3819 3.0226 78.6647 2.73974C79.0183 2.38616 79.4285 2.08915 79.8103 1.79214C81.5782 0.462673 83.5724 -0.131343 85.7364 0.0242328C87.3487 0.151522 88.8054 0.688966 90.05 1.62242C91.0684 2.38616 91.7755 3.37618 92.3412 4.23892C92.5393 4.53593 92.7655 4.71979 93.1333 4.83294C95.7922 5.68153 98.14 6.55841 100.304 7.5343C105.325 9.78307 109.313 12.6683 112.495 16.3597C114.094 18.1983 115.876 20.4471 117.092 23.1343C117.474 23.9829 117.827 24.8598 118.167 25.6942C118.393 26.2317 118.619 26.7974 118.846 27.349C122.099 35.0005 125.578 43.2177 129.114 51.4915C130.372 54.4333 131.674 57.46 132.989 60.4866C133.795 62.3394 133.951 64.2487 133.47 66.1581C133.427 66.3136 133.442 66.5116 133.484 66.6248C133.894 67.6714 134.347 68.7604 134.813 69.8494C135.082 70.4576 135.11 71.1506 134.898 71.8295C134.729 72.3811 134.658 72.8337 134.658 73.258L134.672 74.149C134.7 76.03 134.729 77.9818 134.743 79.8911C134.743 80.5559 134.714 81.1782 134.63 81.7581C134.304 84.0775 133.017 85.6475 130.783 86.3829C129.75 86.7365 128.704 86.7931 127.897 86.8072C127.671 86.8072 127.445 86.8072 127.218 86.8213C126.808 86.8213 126.37 86.8355 125.96 86.8496C125.875 86.8496 125.719 86.8638 125.677 86.8779C125.649 86.9203 125.62 87.0476 125.578 87.1608C125.253 88.3064 124.772 89.8056 124.008 91.2057C122.481 94.0202 120.189 95.6326 117.205 95.9862C116.894 96.0286 116.569 96.0569 116.257 96.0993C117.488 96.4246 118.718 96.764 119.949 97.0893C123.032 97.9238 126.228 98.7724 129.368 99.6068C130.033 99.7766 130.698 99.9604 131.348 100.116C132.027 100.286 132.72 100.47 133.413 100.653C133.739 100.738 134.05 100.866 134.304 101.021C134.615 101.219 134.799 101.502 134.813 101.813C134.828 102.124 134.672 102.421 134.375 102.619C134.064 102.846 133.71 103.001 133.371 103.086C132.466 103.298 131.49 103.51 130.514 103.638C129.17 103.822 127.798 103.991 126.469 104.147C125.946 104.203 125.408 104.274 124.885 104.345C124.206 104.43 123.541 104.515 122.862 104.599C120.939 104.84 118.945 105.08 116.979 105.321C115.409 105.505 113.825 105.688 112.283 105.872L110.883 106.028C110.049 106.127 109.214 106.226 108.394 106.311C107.149 106.452 105.848 106.608 104.575 106.749C102.312 107.018 100.445 107.244 98.4936 107.485C97.249 107.64 95.9761 107.81 94.7456 107.965C94.2506 108.036 93.7414 108.093 93.2464 108.163C92.8928 108.206 92.5534 108.234 92.214 108.234C91.2239 108.277 90.2622 108.093 89.357 107.697ZM80.1498 2.23058C79.782 2.51344 79.386 2.79631 79.0607 3.12161C78.6789 3.48933 78.2404 3.67319 77.6464 3.70148C76.5432 3.75805 75.0723 3.84291 73.6156 4.01263C70.5465 4.35207 67.435 5.07337 64.3659 6.1624C62.7394 6.74228 61.0847 7.5343 59.3168 8.60919C57.2801 9.83965 55.2577 11.0701 53.221 12.3006C48.7518 15.0161 44.1411 17.8164 39.5869 20.5461C29.1209 26.8398 18.4286 33.2326 9.2214 38.7343C6.46346 40.3891 4.35612 42.454 2.78622 45.0563C1.68305 46.8949 0.961741 48.9033 0.65059 51.0531C0.636446 51.1521 0.594016 51.2369 0.551587 51.3076C0.551587 51.3076 0.551587 51.3076 0.551587 51.3218V72.9468L1.30118 73.4135V73.5691C1.30118 73.6964 1.30118 73.8096 1.30118 73.9368C1.30118 74.2056 1.30118 74.4743 1.30118 74.7289C1.30118 74.8986 1.30118 75.0542 1.30118 75.2239C1.30118 75.6623 1.30118 76.1149 1.34361 76.5533C1.41432 77.3454 1.61233 77.5858 2.39021 77.7414C3.05494 77.8828 3.73382 78.0101 4.39855 78.1232C4.7097 78.1798 5.02085 78.2364 5.332 78.293C5.45929 78.3212 5.58658 78.3495 5.71387 78.3637C5.77044 78.3778 5.82702 78.392 5.88359 78.392L6.02502 78.4202L6.0816 78.5617C6.12402 78.6607 6.16646 78.7597 6.19474 78.8587C6.2796 79.0708 6.35032 79.2547 6.43518 79.4386C6.77461 80.1882 7.25549 80.6549 7.90607 80.867C8.74053 81.1358 9.60326 81.3762 10.4236 81.6166L10.6074 81.6732C11.3995 81.8995 12.2056 82.1258 12.9976 82.3379C14.1008 82.6491 15.2323 82.9602 16.3496 83.2855C26.8722 86.3263 39.3182 89.9894 51.8774 94.1051C58.5247 96.2832 65.2569 98.6027 71.7628 100.851L72.7104 101.177C76.4867 102.478 80.3195 103.85 84.025 105.179C85.6374 105.759 87.2921 106.339 88.9327 106.919C89.1307 106.99 89.357 107.074 89.5692 107.159C90.6865 107.64 91.9028 107.81 93.1898 107.64C93.6849 107.569 94.194 107.513 94.689 107.442C95.9195 107.287 97.1782 107.117 98.437 106.961C100.389 106.721 102.27 106.495 104.519 106.226C105.791 106.07 107.079 105.929 108.337 105.787C109.172 105.688 110.006 105.589 110.826 105.505L112.227 105.349C113.768 105.165 115.352 104.981 116.908 104.797C118.874 104.557 120.868 104.317 122.792 104.076C123.471 103.991 124.135 103.906 124.814 103.822C125.337 103.751 125.875 103.694 126.412 103.624C127.742 103.468 129.114 103.298 130.457 103.114C131.419 102.973 132.381 102.775 133.272 102.563C133.541 102.506 133.823 102.365 134.064 102.195C134.205 102.096 134.276 101.969 134.262 101.856C134.262 101.728 134.163 101.601 134.007 101.516C133.795 101.389 133.541 101.276 133.258 101.205C132.579 101.021 131.872 100.837 131.207 100.668C130.556 100.498 129.877 100.328 129.227 100.158C126.087 99.324 122.891 98.4612 119.807 97.6409C118.506 97.2873 117.191 96.9479 115.89 96.5943L115.847 96.5802C115.508 96.4953 115.154 96.3963 114.801 96.2407L113.896 95.8306L114.886 95.7174C115.126 95.6892 115.352 95.6609 115.593 95.6326C116.102 95.576 116.625 95.5194 117.134 95.4487C119.977 95.1093 122.07 93.6384 123.513 90.9512C124.248 89.5934 124.715 88.1367 125.04 87.0193C125.21 86.4253 125.323 86.3263 125.931 86.3122C126.356 86.298 126.794 86.298 127.218 86.2839C127.445 86.2839 127.671 86.2839 127.897 86.2698C128.661 86.2556 129.651 86.199 130.613 85.8737C132.649 85.1949 133.781 83.823 134.078 81.7015C134.149 81.1499 134.191 80.5417 134.191 79.9053C134.177 77.996 134.149 76.0442 134.12 74.1631L134.106 73.2721C134.092 72.7771 134.177 72.2821 134.361 71.6598C134.474 71.2638 134.559 70.6697 134.304 70.0616C133.823 68.9584 133.371 67.8694 132.961 66.8086C132.862 66.5682 132.848 66.257 132.918 65.9883C133.385 64.178 133.244 62.4384 132.466 60.6705C131.15 57.6438 129.835 54.603 128.59 51.6612C125.069 43.3874 121.575 35.1702 118.322 27.5187C118.082 26.9671 117.856 26.4014 117.644 25.8639C117.304 25.0295 116.95 24.1526 116.569 23.3182C115.381 20.7017 113.627 18.4953 112.057 16.6708C108.931 13.0502 105.014 10.2074 100.063 8.00103C97.9137 7.03928 95.5942 6.1624 92.9636 5.32795C92.4685 5.17237 92.1432 4.9178 91.8745 4.50764C91.3371 3.68734 90.6723 2.75388 89.7247 2.03258C88.565 1.15569 87.2072 0.660681 85.7081 0.547535C85.4959 0.533391 85.2838 0.519246 85.0575 0.519246C83.2896 0.547533 81.6348 1.11326 80.1498 2.23058ZM89.4843 105.872C89.3287 105.816 89.159 105.745 89.0034 105.688C88.3953 105.462 87.773 105.222 87.1507 105.01C85.2555 104.359 83.3461 103.694 81.451 103.044C73.757 100.399 65.8085 97.6551 57.9873 94.982C53.1786 93.3414 48.0587 91.6159 42.8965 90.1309C41.3407 89.6924 39.7567 89.254 38.2292 88.8297C36.3057 88.3064 34.3257 87.7548 32.388 87.1891C28.2441 85.9727 24.0435 84.714 19.9703 83.4835C18.2589 82.9744 16.5476 82.4511 14.8363 81.9419C14.7655 81.9278 14.6948 81.8995 14.6241 81.8712L14.0442 81.7298C13.7048 81.6449 13.3512 81.5601 13.0118 81.4752C12.2198 81.2772 11.4136 81.065 10.6074 80.8529C9.77298 80.6266 8.93853 80.372 8.14651 80.1316C7.66564 79.976 7.35449 79.6224 7.18477 79.0143L7.11405 78.7314L7.39692 78.6607C7.99093 78.5193 8.72638 78.4768 9.13654 79.3113C9.16482 79.3679 9.23554 79.4244 9.30626 79.4951C9.33454 79.5093 9.34869 79.5376 9.37697 79.5517C9.97099 80.0892 10.5933 80.1882 11.2722 79.8629C11.4702 79.7639 11.6682 79.6507 11.8803 79.5234C11.9793 79.4669 12.0925 79.3961 12.2056 79.3396L12.4178 79.2264L12.5592 79.4244C12.6158 79.4951 12.6582 79.5659 12.7148 79.6224C13.1815 80.2306 13.6199 80.7963 14.2564 81.2206L14.5393 81.2489C15.0626 81.2913 15.5434 81.164 16.0102 80.8387C16.293 80.6407 16.5617 80.6125 16.9153 80.7115C17.5659 80.9095 18.1175 81.0368 18.6125 81.1216C19.0934 81.2065 19.447 81.4186 19.7581 81.7863C20.3946 82.5642 21.2573 83.0592 22.3888 83.2997C23.8031 83.6108 25.175 83.9503 26.3489 84.2473C27.8905 84.6291 29.4462 85.0393 30.9596 85.4212C33.8872 86.1708 36.9139 86.9486 39.8981 87.6699C42.3166 88.2498 44.7917 88.7731 47.1819 89.2681C47.9456 89.4237 48.7093 89.5793 49.4589 89.749L49.5579 89.7631C50.8025 90.0319 51.9623 90.2723 53.1645 89.8763L53.32 89.8197L53.4473 89.9329C53.5746 90.046 53.6878 90.1733 53.8009 90.2723C54.0272 90.4986 54.2393 90.6966 54.4656 90.8946C55.7668 91.9836 57.0821 92.1533 58.4823 91.3896C58.8359 91.1916 59.1329 91.2482 59.3875 91.333C60.3492 91.6583 61.3817 91.9978 62.7111 92.4362C63.1779 92.5918 63.6587 92.7332 64.1113 92.8746C65.0023 93.1575 65.9358 93.4404 66.841 93.7657C67.3218 93.9354 67.7603 94.2183 68.1846 94.487L68.2553 94.5294C68.524 94.6991 68.7786 94.8971 69.019 95.081C69.217 95.2224 69.415 95.378 69.6131 95.5194C70.2212 95.9296 70.9142 96.1276 71.6497 96.0993C72.074 96.0852 72.4983 96.0427 72.9084 96.0003C73.8419 95.9013 74.9451 95.8447 76.0482 96.2125C81.8611 98.1218 87.7871 100.059 93.5151 101.926C96.1458 102.789 98.7764 103.638 101.407 104.5C101.506 104.529 101.591 104.585 101.676 104.628C101.704 104.642 101.732 104.656 101.761 104.67L102.355 104.967L101.732 105.179C101.237 105.349 100.714 105.476 100.106 105.547C97.942 105.816 95.9336 106.056 93.9677 106.297C93.4869 106.353 93.0201 106.381 92.5675 106.381C91.4361 106.396 90.4319 106.226 89.4843 105.872ZM93.3454 102.478C87.6174 100.611 81.7055 98.6734 75.8785 96.764C74.8743 96.4388 73.8419 96.4812 72.965 96.5802C72.5407 96.6226 72.1023 96.6509 71.678 96.6792C70.8152 96.7216 70.0091 96.4953 69.3019 96.0003C69.0897 95.8589 68.8917 95.7033 68.6937 95.5477C68.4533 95.3639 68.2129 95.18 67.9583 95.0244L67.8876 94.982C67.4916 94.7274 67.0814 94.4587 66.6571 94.3173C65.7661 94.0061 64.8326 93.7091 63.9416 93.4404C63.4749 93.299 63.0082 93.1434 62.5273 93.0019C61.1978 92.5776 60.1654 92.2382 59.1895 91.8988C58.9915 91.828 58.8783 91.828 58.7369 91.9129C57.1387 92.7898 55.583 92.6059 54.0979 91.3613C53.8575 91.1633 53.6453 90.9512 53.4049 90.7107C53.3342 90.64 53.2493 90.5693 53.1786 90.4844C51.8916 90.8522 50.647 90.5976 49.4448 90.343L49.3458 90.3289C48.582 90.1733 47.8325 90.0036 47.0687 89.848C44.6644 89.353 42.1893 88.8297 39.7708 88.2498C36.7866 87.5285 33.7599 86.7506 30.8323 86.001C29.4179 85.6333 27.9471 85.2656 26.5044 84.8979C28.5269 85.506 30.5494 86.1 32.5577 86.6941C34.4954 87.2598 36.4754 87.8114 38.3848 88.3347C39.9122 88.759 41.5104 89.1974 43.0662 89.6358C48.2426 91.1209 53.3766 92.8464 58.1853 94.5011C66.0065 97.1742 73.9692 99.918 81.649 102.563C83.5442 103.213 85.4535 103.878 87.3487 104.529C87.9851 104.741 88.6074 104.981 89.2297 105.222C89.3853 105.278 89.555 105.349 89.7106 105.406C90.9411 105.872 92.313 106 93.9111 105.816C95.8771 105.589 97.8854 105.349 100.049 105.08C100.318 105.052 100.558 105.01 100.785 104.953C98.2956 104.09 95.8205 103.284 93.3454 102.478ZM16.3213 81.2913C16.1233 81.4328 15.9112 81.5318 15.699 81.6166C17.1699 82.0551 18.6549 82.5077 20.1258 82.9461C20.1541 82.9602 20.1824 82.9602 20.2107 82.9744C19.8854 82.7339 19.5884 82.4652 19.3338 82.1399C19.1075 81.8712 18.8671 81.7298 18.5277 81.6732C18.0044 81.5742 17.4528 81.4469 16.7739 81.2348C16.7032 81.2065 16.6466 81.2065 16.59 81.2065C16.4769 81.2065 16.4062 81.2348 16.3213 81.2913ZM12.1632 80.0043C11.9369 80.1316 11.7389 80.2589 11.5126 80.372C11.4419 80.4003 11.3853 80.4286 11.3146 80.4569C11.8945 80.6124 12.4743 80.7539 13.0401 80.8953C12.7572 80.5983 12.5168 80.273 12.2763 79.9619C12.2763 79.9619 12.2763 79.9619 12.2763 79.9477C12.2198 79.9619 12.1915 79.9902 12.1632 80.0043ZM7.82121 79.1416C7.93436 79.382 8.08994 79.5093 8.30209 79.58C8.44352 79.6224 8.59909 79.6649 8.74053 79.7214C8.6981 79.679 8.65567 79.6224 8.62738 79.5517C8.48595 79.2688 8.28794 79.1416 7.97679 79.1416C7.93436 79.1416 7.87779 79.1416 7.82121 79.1416ZM104.335 104.5L104.066 104.401C103.67 104.26 103.26 104.119 102.864 103.991C101.732 103.624 100.601 103.256 99.4695 102.888C95.8629 101.714 92.1291 100.512 88.4519 99.324C85.9202 98.5037 83.332 97.6975 80.8286 96.9055C79.4567 96.467 78.0849 96.0427 76.7271 95.6043C76.6422 95.576 76.5715 95.5336 76.515 95.4911C76.5008 95.477 76.4867 95.4629 76.4584 95.4629L76.1614 95.2931L76.3877 95.0386C76.5008 94.9113 76.614 94.784 76.713 94.6567C76.9958 94.3173 77.2645 94.0061 77.5616 93.695C77.7171 93.5252 77.9717 93.4404 78.1556 93.4121C78.6082 93.3555 79.089 93.3272 79.6689 93.299C80.1922 93.2707 80.7155 93.2424 81.2247 93.2282C82.0167 93.1858 82.8228 93.1575 83.6149 93.1151C83.9967 93.0868 84.223 93.2848 84.3927 93.4262C84.6332 93.6242 84.8878 93.8364 85.1282 94.0344C85.7505 94.5577 86.4011 95.0951 87.08 95.5619C89.06 96.9479 91.2381 97.5844 93.5717 97.4429C94.5335 97.3863 95.5093 97.2873 96.4428 97.2025L96.7681 97.1742C97.2631 97.1318 97.7723 97.061 98.2673 97.0045C98.536 96.9762 98.8189 96.9338 99.0876 96.9055C100.106 96.7923 101.082 97.0328 101.987 97.3015C104.999 98.1642 108.04 99.0553 110.996 99.918L111.293 100.003C113.287 100.583 115.324 101.191 117.29 101.757C118.167 102.011 119.058 102.28 119.935 102.534L120.119 102.591L120.175 103.157L119.906 103.199C119.864 103.199 119.822 103.213 119.779 103.213C119.68 103.228 119.581 103.242 119.482 103.256C119.298 103.27 119.114 103.298 118.931 103.312C118.605 103.341 118.266 103.383 117.941 103.426C117.332 103.51 116.724 103.595 116.13 103.68C115.253 103.807 114.362 103.935 113.471 104.048C111.378 104.317 109.228 104.571 107.39 104.797C107.036 104.84 106.697 104.854 106.371 104.854C105.664 104.826 104.971 104.727 104.335 104.5ZM117.163 102.28C115.197 101.7 113.174 101.106 111.166 100.526L110.869 100.441C107.913 99.5786 104.872 98.6875 101.86 97.8248C100.969 97.5702 100.092 97.3439 99.1724 97.4571C98.9037 97.4853 98.6208 97.5278 98.3521 97.5561C97.8571 97.6126 97.348 97.6834 96.8388 97.7258L96.5135 97.7541C95.5659 97.8531 94.59 97.9379 93.6141 97.9945C91.1674 98.1359 88.862 97.4712 86.7688 96.0144C86.0758 95.5336 85.4111 94.982 84.7746 94.4587C84.5342 94.2607 84.2937 94.0627 84.0392 93.8647C83.8694 93.7232 83.7846 93.6808 83.6432 93.6808C82.837 93.7232 82.0308 93.7657 81.2388 93.794C80.7296 93.8223 80.2063 93.8364 79.683 93.8647C79.1173 93.893 78.6506 93.9354 78.198 93.9778C78.0849 93.992 77.9859 94.0344 77.9434 94.0768C77.6606 94.3738 77.3918 94.685 77.109 95.0103C77.0807 95.0386 77.0524 95.081 77.0241 95.1093C78.3394 95.5336 79.6548 95.9437 80.9701 96.3539C83.4734 97.1459 86.0475 97.9662 88.5933 98.7724C92.2705 99.9463 96.0044 101.163 99.6109 102.336C100.742 102.704 101.874 103.072 103.005 103.44C103.415 103.567 103.826 103.723 104.222 103.864L104.49 103.963C105.325 104.26 106.258 104.345 107.333 104.218C109.172 103.991 111.321 103.737 113.415 103.468C114.306 103.355 115.197 103.228 116.074 103.1C116.668 103.015 117.276 102.931 117.884 102.846C118.181 102.803 118.478 102.775 118.761 102.747C118.238 102.591 117.7 102.435 117.163 102.28ZM122.947 102.336C122.41 102.153 121.844 101.997 121.292 101.856C121.066 101.799 120.84 101.728 120.614 101.672C119.482 101.346 118.365 101.035 117.233 100.71C114.985 100.074 112.665 99.423 110.388 98.7724C109.327 98.4754 108.238 98.1501 107.206 97.8531C106.569 97.6692 105.947 97.4854 105.311 97.3015C105.155 97.2591 104.999 97.2166 104.858 97.1742C104.787 97.16 104.717 97.1318 104.646 97.1176L104.434 97.0611L104.462 96.467L104.702 96.4387C105.127 96.3963 105.565 96.3539 105.989 96.3115C107.036 96.2125 108.125 96.1134 109.186 96.0144C109.907 95.9579 110.572 96.0003 111.208 96.1842C113.853 96.9196 116.54 97.6551 119.143 98.3622C120.557 98.7441 121.971 99.1401 123.386 99.522C124.97 99.9604 126.582 100.413 128.138 100.837L129.071 101.092C129.199 101.134 129.326 101.177 129.453 101.219C129.51 101.247 129.58 101.276 129.651 101.29L130.174 101.488L129.708 101.799C129.665 101.827 129.637 101.841 129.623 101.856C129.566 101.898 129.51 101.94 129.425 101.94C129.057 101.997 128.689 102.039 128.322 102.096C127.289 102.237 126.228 102.393 125.182 102.52C124.956 102.549 124.743 102.563 124.531 102.563C123.966 102.591 123.442 102.506 122.947 102.336ZM127.968 101.375C126.412 100.936 124.8 100.484 123.216 100.059C121.802 99.6776 120.387 99.2815 118.973 98.8997C116.371 98.1925 113.669 97.4571 111.024 96.7216C110.445 96.566 109.851 96.5095 109.2 96.566C108.139 96.665 107.05 96.764 106.004 96.863C105.961 96.863 105.919 96.8772 105.876 96.8772C106.357 97.0186 106.852 97.1601 107.333 97.3015C108.38 97.5985 109.455 97.9238 110.515 98.2208C112.792 98.8714 115.126 99.522 117.361 100.158C118.492 100.484 119.609 100.795 120.741 101.12C120.967 101.191 121.193 101.247 121.42 101.304C121.971 101.46 122.551 101.615 123.103 101.799C123.725 102.011 124.362 102.068 125.069 101.983C126.115 101.856 127.176 101.7 128.209 101.559C128.308 101.544 128.392 101.53 128.491 101.516L127.968 101.375ZM88.0417 94.685C86.8961 93.9212 85.8354 93.0868 84.916 92.1958C83.0633 90.4137 81.5358 88.9287 80.1215 87.5285C77.2645 84.6857 74.9733 81.9843 73.1064 79.2547C73.0923 79.2264 73.064 79.1981 73.0357 79.1557C72.9367 79.0284 72.767 78.8304 72.7953 78.5475L72.8236 78.293H73.0781C73.2054 78.293 73.3327 78.293 73.46 78.2788C73.7287 78.2647 74.0257 78.2647 74.2945 78.293C76.7837 78.6041 79.3153 79.1557 82.0591 79.9902C85.2555 80.966 88.6781 82.3096 92.808 84.2331C94.095 84.8271 95.382 85.4636 96.6125 86.0859C97.0085 86.2839 97.4045 86.4819 97.8147 86.6799C99.229 87.3871 100.771 87.6699 102.369 87.5426L102.708 87.5144C103.712 87.4295 104.745 87.3446 105.763 87.2881C106.739 87.2315 107.743 87.1749 108.705 87.1325C109.285 87.1042 109.851 87.0759 110.43 87.0476C111.562 86.9911 112.679 86.9203 113.811 86.8638C116.243 86.7365 118.761 86.595 121.222 86.4678C121.773 86.4395 122.311 86.4536 122.877 86.4536C123.131 86.4536 123.4 86.4536 123.669 86.4536H124.022L123.937 86.7931C123.4 89.0135 122.48 90.7814 121.137 92.2099C120.189 93.1999 119.086 93.8364 117.842 94.0768C116.71 94.3031 115.55 94.4304 114.673 94.5011C113.896 94.5718 113.118 94.6284 112.354 94.6708C111.788 94.6991 111.194 94.7416 110.614 94.784C108.351 94.9678 105.947 95.1659 103.076 95.4063C102.242 95.477 101.407 95.5619 100.587 95.6326C99.5543 95.7316 98.4794 95.8306 97.4187 95.9155C95.8064 96.0427 94.4627 96.1417 93.1898 96.1983C93.0626 96.1983 92.9353 96.2125 92.8221 96.2125C91.1674 96.2407 89.6116 95.7316 88.0417 94.685ZM122.862 87.0193C122.297 87.0052 121.773 87.0052 121.236 87.0335C118.761 87.1608 116.257 87.2881 113.825 87.4295C112.693 87.4861 111.576 87.5568 110.445 87.6134C109.865 87.6416 109.285 87.6699 108.719 87.6982C107.757 87.7406 106.753 87.7972 105.777 87.8538C104.759 87.9104 103.727 87.9952 102.722 88.0801L102.383 88.1084C100.686 88.2498 99.0452 87.9387 97.5318 87.1891C97.1358 86.9911 96.7398 86.7931 96.3296 86.595C95.085 85.9727 93.8121 85.3363 92.5251 84.7423C88.4236 82.8329 85.0292 81.4893 81.847 80.5276C79.1456 79.7073 76.6281 79.1557 74.1813 78.8587C73.955 78.8304 73.7146 78.8304 73.4459 78.8446C73.4742 78.8728 73.4883 78.9011 73.5166 78.9294C75.3694 81.6308 77.6323 84.3038 80.4609 87.1183C81.8753 88.5185 83.3886 90.0036 85.2413 91.7856C86.1465 92.6484 87.1648 93.4687 88.2963 94.2183C89.8803 95.2649 91.4502 95.7457 93.105 95.6609C94.3779 95.6043 95.7073 95.5194 97.3197 95.378C98.3804 95.2931 99.4412 95.1941 100.474 95.0951C101.294 95.0244 102.143 94.9396 102.963 94.8688C105.848 94.6143 108.238 94.4163 110.515 94.2465C111.095 94.2041 111.689 94.1617 112.255 94.1334C113.019 94.091 113.797 94.0344 114.56 93.9637C115.423 93.8788 116.569 93.7657 117.672 93.5394C118.803 93.3131 119.807 92.7474 120.67 91.828C121.886 90.541 122.735 88.957 123.258 87.0052C123.159 87.0193 123.018 87.0193 122.862 87.0193ZM70.6455 95.7457C69.8676 95.5477 69.2029 95.1659 68.6937 94.6284C68.1139 94.0061 67.6047 93.4404 67.1663 92.7898C65.6954 90.541 65.0023 87.9387 64.9175 84.3463V84.3321V84.318C64.9458 84.0917 64.9741 83.8371 65.0165 83.5543C65.1014 82.7905 65.2145 81.8429 65.3701 80.9095C65.5257 79.9053 65.7802 79.0567 66.148 78.3354C66.3742 77.8828 66.7137 77.699 67.2228 77.7414C68.7503 77.897 70.2636 78.0101 71.5507 78.1091C71.975 78.1374 72.2013 78.3778 72.3427 78.59C72.6963 79.1133 73.0499 79.6366 73.4176 80.1174C73.9268 80.7822 74.45 81.4469 74.9592 82.0834C75.4542 82.7198 75.9775 83.3704 76.4725 84.0068C76.713 84.3038 76.8261 84.5726 76.8261 84.7989C76.8402 86.5809 76.7837 88.4902 76.317 90.3996C75.8927 92.1109 75.1996 93.4969 74.1955 94.6001C73.4459 95.4346 72.5831 95.8447 71.6073 95.8447C71.2961 95.8589 70.9849 95.8164 70.6455 95.7457ZM66.6571 78.5617C66.3177 79.2406 66.0772 80.0326 65.9217 80.9802C65.7802 81.9136 65.6671 82.8471 65.5681 83.6108C65.5398 83.8795 65.5115 84.1341 65.4832 84.3604C65.5681 87.8255 66.2328 90.343 67.6471 92.4928C68.0432 93.1009 68.5523 93.6525 69.1039 94.2465C69.5423 94.7133 70.1081 95.0386 70.7869 95.2083C71.9467 95.5053 72.9367 95.1941 73.7712 94.2607C74.7188 93.2141 75.3694 91.9129 75.7654 90.2864C76.2179 88.4337 76.2745 86.5668 76.2604 84.8271C76.2604 84.7847 76.2321 84.6291 76.0341 84.3604C75.5391 83.7098 75.0158 83.0592 74.5208 82.4369C74.0116 81.7863 73.4883 81.1216 72.965 80.4569C72.569 79.9477 72.2154 79.4244 71.8618 78.887C71.7487 78.7173 71.6638 78.6607 71.4941 78.6465C70.2071 78.5475 68.6796 78.4344 67.1521 78.2788C67.1097 78.2788 67.0814 78.2788 67.0531 78.2788C66.8693 78.2788 66.7561 78.3495 66.6571 78.5617ZM74.5349 94.6567L74.6622 94.4445C74.6905 94.388 74.7188 94.3456 74.747 94.289C74.8178 94.1617 74.8885 94.0344 74.9733 93.9212C75.9068 92.6908 76.4867 91.1775 76.7978 89.1691C76.8968 88.5185 76.9251 87.8538 76.9675 87.2032C76.9817 86.8779 76.9958 86.5385 77.0241 86.199C77.0383 86.0435 77.0665 85.8879 77.0948 85.7323C77.109 85.6616 77.1231 85.5767 77.1373 85.4919L77.1938 85.0817L77.5474 85.2939C77.9293 85.5202 78.3394 85.8596 78.2687 86.5526C78.2263 86.9769 78.1839 87.4012 78.1414 87.8255C78.0707 88.5327 78.0141 89.2681 77.8868 89.9894C77.604 91.7008 76.9958 93.0585 76.0341 94.1475C75.8502 94.3456 75.6664 94.5153 75.4684 94.685C75.3835 94.7557 75.2986 94.8406 75.2138 94.9113L75.0299 95.081L74.5349 94.6567ZM77.5898 86.2415C77.5616 86.5668 77.5474 86.9062 77.5333 87.2315C77.505 87.8962 77.4626 88.5892 77.3635 89.254C77.1373 90.7107 76.7695 91.927 76.2321 92.9595C76.7837 92.1109 77.1514 91.0926 77.3353 89.8904C77.4484 89.1833 77.5191 88.462 77.5757 87.7689C77.6181 87.3446 77.6606 86.9062 77.703 86.4819C77.7171 86.3122 77.703 86.1849 77.5898 86.0435C77.5898 86.1142 77.5898 86.1708 77.5898 86.2415ZM78.297 92.3655C78.1273 92.1251 78.2404 91.7998 78.3819 91.432C78.396 91.3896 78.4243 91.3472 78.4526 91.3047C78.4667 91.2765 78.495 91.2482 78.5233 91.1916L78.6082 91.0643H78.7637C79.0466 91.0643 79.3295 91.0643 79.6123 91.0643C80.2771 91.0643 80.9559 91.0643 81.6348 91.0643C82.4551 91.0643 82.7663 91.333 82.9077 92.2241L82.9643 92.5352L82.639 92.5494C82.2995 92.5635 81.946 92.5635 81.6065 92.5776C80.8145 92.5918 79.9942 92.6201 79.1739 92.6201C79.1456 92.6201 79.1173 92.6201 79.089 92.6201C78.7496 92.6342 78.4526 92.5918 78.297 92.3655ZM81.6348 91.63C80.9559 91.63 80.2771 91.63 79.6123 91.63C79.3719 91.63 79.1456 91.63 78.9193 91.63C78.9193 91.6442 78.9052 91.6442 78.9052 91.6583C78.8062 91.8846 78.7779 91.9978 78.7779 92.0543C78.8344 92.0685 78.9335 92.0826 79.188 92.0826C79.9942 92.0685 80.8145 92.0543 81.6065 92.0402C81.8328 92.0402 82.0733 92.0261 82.2995 92.0261C82.2005 91.6583 82.045 91.63 81.6348 91.63ZM60.0946 90.739L60.3775 90.4137C60.4482 90.3289 60.5189 90.244 60.5897 90.1591C60.7452 89.9753 60.8725 89.8197 61.0422 89.6924C61.2402 89.5368 61.5231 89.4378 61.7777 89.452C62.2303 89.4661 62.6829 89.4803 63.1072 89.5086C63.489 89.5227 63.8709 89.551 64.2528 89.5651C64.8326 89.5793 65.2286 89.8339 65.4267 90.3006C65.5822 90.6824 65.7378 91.0643 65.8934 91.4462C65.9641 91.6159 66.0207 91.7715 66.0914 91.9412L66.1621 92.1251L65.7802 92.4504L60.0946 90.739ZM61.3817 90.1309C61.2827 90.2157 61.1837 90.3147 61.0705 90.4562L65.4267 91.7573C65.4125 91.729 65.3984 91.6866 65.3842 91.6583C65.2286 91.2906 65.0731 90.8946 64.9175 90.5127C64.8044 90.244 64.6063 90.1309 64.2386 90.1167C63.8426 90.1026 63.4607 90.0884 63.0789 90.0601C62.6404 90.0319 62.202 90.0177 61.7635 90.0036C61.7635 90.0036 61.7635 90.0036 61.7494 90.0036C61.6221 90.0036 61.4665 90.0601 61.3817 90.1309ZM55.2577 91.0643C54.7485 90.7107 54.3242 90.3147 53.9706 89.9046C53.1079 88.8863 52.6553 87.6275 52.2593 86.4395C52.1037 85.9727 52.2734 85.6757 52.4714 85.4353C53.2776 84.4453 53.9423 83.6108 54.5929 82.7339C55.8941 80.966 56.771 79.5376 57.4499 78.095C57.662 77.6282 57.9307 77.0625 58.3975 76.5958L58.5106 76.4826L58.6662 76.5251C59.1612 76.6382 59.5006 76.9211 59.6703 77.3878C59.6986 77.4444 59.7128 77.5151 59.7411 77.5717C59.8684 77.8828 59.9815 78.194 60.0664 78.5193C60.2361 79.283 60.4341 80.174 60.5897 81.0933C60.9432 83.2431 60.915 85.1524 60.5189 86.8921C60.2927 87.8538 59.9674 88.9711 59.2461 89.9611C58.85 90.4844 58.3692 90.9087 57.8176 91.1916C57.4216 91.4037 57.0256 91.5028 56.6296 91.5028C56.1487 91.5169 55.6961 91.3613 55.2577 91.0643ZM57.959 78.3354C57.266 79.8063 56.375 81.263 55.0455 83.0592C54.3808 83.9503 53.716 84.7847 52.9099 85.7889C52.7543 85.9727 52.726 86.0717 52.7967 86.2698C53.1645 87.4154 53.6029 88.6034 54.3949 89.551C54.7202 89.9329 55.1162 90.2864 55.583 90.6117C56.1911 91.0502 56.8558 91.0785 57.5489 90.7107C58.0439 90.4562 58.4399 90.1026 58.7935 89.6358C59.4582 88.7448 59.7552 87.6841 59.9674 86.7789C60.3492 85.0959 60.3775 83.2714 60.0381 81.1923C59.8966 80.2872 59.6986 79.3961 59.5148 78.6465C59.4441 78.3495 59.3309 78.0667 59.2178 77.7697C59.1895 77.7131 59.1753 77.6424 59.147 77.5858C59.048 77.3454 58.9066 77.1898 58.6803 77.1049C58.355 77.4868 58.1429 77.9252 57.959 78.3354ZM79.089 90.2016L78.8486 90.1309L78.891 89.8904C78.9193 89.7348 78.9335 89.5793 78.9617 89.4096C79.0183 88.9004 79.089 88.3771 79.4285 87.8821L79.5982 87.6417L79.8245 87.8114C80.6589 88.4337 81.4227 89.3106 81.5924 89.8339L81.6914 90.1309L81.3944 90.1874C80.9984 90.2723 80.5458 90.3147 80.1215 90.3147C79.7113 90.3147 79.3436 90.2723 79.089 90.2016ZM79.7538 88.4478C79.6123 88.759 79.5699 89.0984 79.5275 89.4661C79.5133 89.551 79.5133 89.6358 79.4992 89.7207C79.8811 89.7773 80.4326 89.7773 80.9277 89.7066C80.7014 89.353 80.2771 88.8863 79.7538 88.4478ZM60.1795 89.4237L60.2785 89.1125C61.4807 85.4494 61.3958 81.5883 60.0381 77.3171L59.9249 76.9635L60.2927 76.9493C60.9291 76.9211 61.0988 76.9635 61.3393 77.5151C61.4241 77.6989 61.4948 77.9111 61.5514 78.1374C62.2161 80.6125 62.4566 82.8188 62.3151 84.8979C62.2161 86.2839 61.9191 87.5002 61.41 88.6034C61.3251 88.8014 61.212 88.9711 61.113 89.155C61.0705 89.2398 61.0281 89.3105 60.9857 89.3954L60.8867 89.5651L60.1795 89.4237ZM61.3958 86.9345C61.5797 86.2839 61.6928 85.5909 61.7353 84.8413C61.8767 82.8329 61.6363 80.6832 60.9857 78.2647C60.9291 78.0667 60.8725 77.8828 60.8018 77.7272C60.7735 77.6707 60.7169 77.5292 60.6887 77.5151C60.6887 77.5151 60.6745 77.5151 60.6604 77.5009C61.6928 80.8529 61.9333 83.9644 61.3958 86.9345ZM48.1436 88.7873L47.0687 88.5468L52.0189 87.1183L52.1037 87.3729C52.1603 87.5426 52.231 87.7124 52.3017 87.8679C52.429 88.1649 52.5704 88.462 52.6129 88.8438L52.6553 89.1408L52.3583 89.155C52.1037 89.1691 51.8491 89.1833 51.5804 89.1833C50.4772 89.1833 49.3458 89.056 48.1436 88.7873ZM51.7926 88.0942C51.7501 87.9952 51.7077 87.8962 51.6653 87.7972L49.4024 88.4478C50.2934 88.5892 51.1561 88.6317 52.0047 88.6175C51.9481 88.4478 51.8774 88.2781 51.7926 88.0942ZM61.8908 88.66L62.5414 87.0193L64.5639 87.2456L64.9034 88.9994L61.8908 88.66ZM62.9092 87.6275L62.6829 88.1932L64.2103 88.363L64.0972 87.7548L62.9092 87.6275ZM47.196 86.8779C47.0829 86.8496 46.9839 86.8213 46.8707 86.7931C46.4606 86.6799 46.0363 86.5809 45.612 86.4253C44.2118 85.9303 42.854 85.5909 41.4539 85.3787C38.7242 84.9686 35.9663 84.516 33.2932 84.0776L32.6002 83.9644C30.3655 83.5967 28.1451 83.229 26.2781 82.9037C25.0053 82.6915 23.9445 82.4935 22.8696 82.2814C21.8655 82.0692 20.9744 81.5459 20.239 80.6973C19.6591 80.0326 19.1924 79.3113 18.8247 78.5334C18.3296 77.4868 17.8488 76.4119 17.382 75.3653C17.2265 75.0117 17.0709 74.6723 16.9153 74.3187C16.8729 74.2338 16.887 74.1631 16.887 74.1066C16.887 74.0783 16.887 74.0641 16.887 74.0217V73.7247L57.266 75.6765L57.1953 76.0018C57.1811 76.0583 57.1811 76.1008 57.167 76.129C57.1529 76.1998 57.1387 76.2422 57.1246 76.3129C55.6395 79.7356 53.7868 82.5784 51.4531 84.9686C50.8874 85.5626 50.1944 86.0293 49.5438 86.4819C49.0629 86.8072 48.5255 86.9769 47.9739 86.9769C47.7334 86.9769 47.4647 86.9486 47.196 86.8779ZM17.5518 74.3328C17.6791 74.6016 17.7922 74.8703 17.9195 75.1532C18.3862 76.1856 18.8671 77.2605 19.3621 78.3071C19.7015 79.0284 20.14 79.7073 20.6916 80.3296C21.3563 81.0933 22.12 81.5601 23.0252 81.7439C24.0859 81.9561 25.1467 82.1541 26.4054 82.3662C28.2723 82.6915 30.4787 83.0592 32.7133 83.427L33.4063 83.5401C36.0794 83.9786 38.8373 84.4311 41.567 84.8271C42.9955 85.0393 44.3815 85.3929 45.8241 85.902C46.2201 86.0435 46.6303 86.1425 47.0263 86.2556C47.1394 86.2839 47.2384 86.3122 47.3516 86.3405C48.0446 86.5243 48.681 86.4253 49.2609 86.0293C49.8974 85.5909 50.5621 85.1383 51.0995 84.5867C53.3625 82.2672 55.1587 79.5234 56.6154 76.2139L17.5518 74.3328ZM100.94 86.4253C100.799 86.397 100.672 86.3546 100.544 86.3263C100.261 86.2698 99.9786 86.199 99.724 86.1C98.7764 85.704 97.6874 85.2373 96.6691 84.7281C91.9452 82.3662 88.2538 80.7539 84.718 79.5093C82.7521 78.8163 80.4044 78.0525 77.9576 77.6424C75.7371 77.2605 73.4459 77.0625 71.2395 76.8786C70.6031 76.8221 69.9383 76.7655 69.2878 76.7089C67.1946 76.5109 64.9882 76.2705 62.7536 75.9735L62.3434 75.9169C60.1371 75.6199 57.8459 75.3229 55.583 75.238C53.8858 75.1814 52.1603 75.0966 50.4914 75.0259C49.8549 74.9976 49.2043 74.9693 48.5679 74.941C48.4123 74.941 48.2567 74.9127 48.1153 74.8986C48.0587 74.8986 47.988 74.8844 47.9315 74.8844L47.6769 74.8562V62.2262L47.9315 62.2121C48.1153 62.1979 48.3133 62.1838 48.483 62.1697C48.8649 62.1414 49.2185 62.1131 49.5862 62.0848L50.8025 61.9858C53.0796 61.8019 55.4415 61.6322 57.7469 61.4484C58.8642 61.3635 59.9956 61.2786 61.113 61.1938C62.1454 61.1231 63.1637 61.0382 64.1962 60.9675C67.237 60.7412 69.9101 60.529 72.3568 60.331C72.8094 60.2886 73.2762 60.2603 73.7287 60.232C74.9592 60.1472 76.2179 60.0482 77.4626 59.9209C79.3012 59.737 80.8004 59.7512 82.2005 60.0057C84.9019 60.4866 86.981 61.2928 88.7489 62.5657C89.6257 63.2021 90.4461 63.881 91.2522 64.5457C91.9028 65.0832 92.5393 65.6348 93.1757 66.1722C94.2365 67.0774 95.3396 68.025 96.4569 68.916C98.239 70.3445 99.9503 71.3062 101.676 71.8719C101.874 71.9426 102.072 71.9992 102.284 72.0699C102.383 72.0982 102.496 72.1406 102.609 72.1689L102.807 72.2255V72.4377C102.779 76.8221 102.567 81.5318 101.294 86.2556L101.223 86.5243L100.94 86.4253ZM102.1 72.5649C101.888 72.4942 101.676 72.4377 101.478 72.3669C99.6816 71.7729 97.9278 70.7829 96.0892 69.312C94.9719 68.421 93.8687 67.4734 92.7938 66.5682C92.1715 66.0308 91.5209 65.4792 90.8845 64.9417C90.0925 64.277 89.2722 63.5981 88.4094 62.9758C86.7264 61.7595 84.718 60.9816 82.1015 60.5149C80.7579 60.2745 79.3012 60.2603 77.5191 60.4442C76.2745 60.5715 75.0016 60.6705 73.7712 60.7553C73.3186 60.7836 72.866 60.826 72.3993 60.8543C69.9525 61.0523 67.2794 61.2503 64.2386 61.4908C63.2062 61.5756 62.1878 61.6464 61.1554 61.7171C60.0381 61.8019 58.9066 61.8868 57.7893 61.9717C55.4698 62.1555 53.122 62.3394 50.845 62.5091L49.6286 62.6081C49.2609 62.6364 48.9073 62.6647 48.5255 62.693C48.4265 62.7071 48.3275 62.7071 48.2285 62.7212V74.3187C48.3416 74.3329 48.4689 74.347 48.582 74.347C49.2185 74.3753 49.8691 74.4036 50.5055 74.4319C52.1744 74.5026 53.8999 74.5874 55.5971 74.644C57.8883 74.7147 60.1936 75.0259 62.4141 75.3229L62.8243 75.3795C65.0589 75.6765 67.2511 75.9169 69.3443 76.1149C69.9949 76.1715 70.6455 76.228 71.2961 76.2846C73.5166 76.4685 75.8219 76.6665 78.0566 77.0484C80.5458 77.4727 82.9219 78.2505 84.9019 78.9436C88.466 80.2023 92.1715 81.8146 96.9095 84.1907C97.9137 84.6999 98.9886 85.1524 99.9362 85.5484C100.148 85.6333 100.403 85.6899 100.657 85.7465C100.7 85.7606 100.756 85.7747 100.813 85.7747C101.987 81.263 102.199 76.7655 102.227 72.5649C102.185 72.5932 102.143 72.5791 102.1 72.5649ZM62.697 86.2415L62.6687 86.0152C62.6687 85.9586 62.6546 85.9162 62.6546 85.8737C62.6404 85.7747 62.6263 85.6757 62.6263 85.5767V85.5484C62.6263 85.308 62.6263 85.0676 62.6404 84.813C62.7111 84.12 62.994 83.8795 63.6729 83.9078C63.7577 83.9078 63.8426 83.922 63.9275 83.9361C63.9699 83.9361 63.9982 83.9503 64.0406 83.9503L64.2245 83.9785L64.2811 84.1483C64.4932 84.8837 64.4932 85.5202 64.2528 86.1708L64.182 86.3829L62.697 86.2415ZM63.6587 84.4877C63.2627 84.4736 63.2344 84.5019 63.2062 84.8837C63.192 85.0959 63.192 85.3222 63.192 85.5484V85.5767C63.192 85.6192 63.192 85.6757 63.2062 85.7465L63.8143 85.8172C63.9275 85.407 63.9275 84.9827 63.8143 84.516C63.7436 84.5018 63.7012 84.4877 63.6587 84.4877ZM102.496 86.3829C102.284 86.3829 102.072 86.3829 101.86 86.3829H101.52L101.591 86.0435C101.605 86.001 101.605 85.9445 101.619 85.902C101.633 85.803 101.662 85.7182 101.676 85.6333C102.199 83.6533 102.539 81.5883 102.666 79.481C102.765 78.0101 102.821 76.5109 102.878 75.0683C102.906 74.4177 102.935 73.753 102.963 73.0882C102.963 72.9468 102.977 72.8195 102.991 72.6781C102.991 72.6074 103.005 72.5367 103.005 72.4659L103.019 72.2114H103.274C106.414 72.1406 109.596 72.0558 112.665 71.9709C119.27 71.8012 126.087 71.6173 132.833 71.5749H133.116V72.0982C133.116 72.2538 133.116 72.3811 133.116 72.5084C133.116 73.1873 133.13 73.8661 133.13 74.545C133.145 76.1008 133.159 77.7272 133.159 79.3113C133.159 80.1882 133.145 81.0368 132.904 81.8712C132.437 83.526 131.348 84.5584 129.679 84.9403C129.184 85.0534 128.661 85.0676 128.166 85.0817C128.081 85.0817 127.996 85.0817 127.912 85.0959C127.035 85.1242 126.129 85.1524 125.267 85.1807C123.782 85.2232 122.24 85.2656 120.741 85.3363C117.686 85.4919 114.574 85.6757 111.576 85.8596C110.982 85.902 110.388 85.9303 109.794 85.9727C108.832 86.0293 107.871 86.1 106.923 86.1708C105.919 86.2415 104.872 86.3122 103.84 86.3688C103.599 86.3829 103.359 86.3829 103.118 86.3829C102.906 86.3829 102.708 86.3829 102.496 86.3829ZM112.679 72.5225C109.681 72.6074 106.598 72.6781 103.543 72.7488C103.529 72.8761 103.529 72.9892 103.529 73.1024C103.5 73.7671 103.472 74.4319 103.444 75.0824C103.387 76.5392 103.331 78.0384 103.232 79.5093C103.104 81.6449 102.765 83.7523 102.227 85.7606C102.227 85.7747 102.213 85.7889 102.213 85.8172C102.312 85.8172 102.425 85.8172 102.524 85.8172C102.963 85.8172 103.387 85.8313 103.797 85.803C104.83 85.7465 105.862 85.6757 106.881 85.605C107.814 85.5343 108.79 85.4777 109.752 85.407C110.346 85.3646 110.94 85.3363 111.534 85.2939C114.546 85.11 117.644 84.912 120.713 84.7564C122.226 84.6857 123.768 84.6433 125.253 84.6009C126.115 84.5726 127.02 84.5584 127.897 84.516C127.982 84.516 128.067 84.516 128.152 84.5018C128.619 84.4877 129.114 84.4736 129.552 84.3746C131.009 84.0351 131.956 83.13 132.367 81.6873C132.579 80.9236 132.593 80.1033 132.593 79.283C132.593 77.6989 132.579 76.0866 132.565 74.5167C132.565 73.8378 132.55 73.159 132.55 72.4801C132.55 72.3528 132.55 72.2396 132.55 72.0982C125.903 72.1689 119.185 72.3528 112.679 72.5225ZM63.687 83.2714C62.994 83.2431 62.7536 82.9178 62.6829 82.6349C62.5414 82.1541 62.5273 81.6873 62.6404 81.2348C62.7253 80.8812 62.9799 80.6973 63.3335 80.7256C63.5597 80.7397 63.7719 80.768 63.9982 80.7963C64.0972 80.8105 64.182 80.8246 64.2811 80.8246L64.5073 80.8529L64.5356 81.0792C64.5922 81.5318 64.6205 82.0834 64.4508 82.6349C64.3942 82.8329 64.2669 83.2855 63.7295 83.2855C63.7012 83.2714 63.7012 83.2714 63.687 83.2714ZM63.9133 81.3479C63.687 81.3196 63.489 81.2913 63.2769 81.2772C63.2203 81.2772 63.2062 81.2772 63.1779 81.3762C63.093 81.7298 63.1072 82.0975 63.2062 82.4935C63.2203 82.5642 63.2627 82.7198 63.7012 82.7339C63.786 82.7339 63.8285 82.7339 63.8992 82.4935C64.0123 82.1116 64.0123 81.7298 63.984 81.3762C63.9558 81.3479 63.9416 81.3479 63.9133 81.3479ZM16.8163 80.273L16.9719 79.9477C17.0143 79.8487 17.0568 79.7497 17.085 79.6507C17.1982 79.3396 17.3255 79.0143 17.6932 78.8021L17.9195 78.6748L18.0609 78.9011C18.1034 78.9718 18.1458 79.0284 18.2024 79.0991C18.4145 79.3961 18.6549 79.7497 18.6125 80.2872L18.5842 80.5983L16.8163 80.273ZM17.5942 79.8487L18.0185 79.9336C17.9761 79.7639 17.8771 79.6366 17.7639 79.481C17.7073 79.5659 17.6649 79.6931 17.5942 79.8487ZM14.313 80.1316C13.7897 79.877 13.4927 79.4386 13.2805 79.085C12.9694 78.5617 12.7713 77.9535 12.6441 77.2039C12.5168 76.3412 12.5168 75.4643 12.6582 74.5309L12.7006 74.2763L16.0809 74.4884L16.1374 74.6581C16.2082 74.8561 16.2789 75.04 16.3496 75.2239C16.5052 75.6482 16.6607 76.0442 16.7597 76.4543C17.0568 77.7414 16.788 78.8728 15.9536 79.8204C15.6707 80.1457 15.3596 80.3013 15.006 80.3013C14.7797 80.3013 14.5534 80.2447 14.313 80.1316ZM13.1815 74.8562C13.0825 75.634 13.0966 76.3695 13.2098 77.1049C13.3088 77.7838 13.4927 78.3212 13.7614 78.788C14.016 79.2123 14.2564 79.4669 14.5675 79.6224C14.9777 79.8204 15.2464 79.778 15.5293 79.4527C16.2364 78.6465 16.4627 77.6848 16.2082 76.5816C16.1233 76.1998 15.9819 75.8179 15.8263 75.4219C15.7697 75.2946 15.7273 75.1532 15.6707 75.0117L13.1815 74.8562ZM64.4366 80.1033C64.2952 80.0891 64.1396 80.0609 63.9982 80.0467C63.6022 80.0043 63.2203 79.9477 62.8384 79.8911C62.6263 79.8629 62.4141 79.6649 62.3434 79.4669C62.3293 79.4103 62.301 79.3396 62.2868 79.283C62.1171 78.7455 61.9333 78.1798 61.905 77.5009L61.8908 77.1757L65.6105 77.5434L64.6629 80.1316L64.4366 80.1033ZM62.499 77.7979C62.5556 78.2647 62.697 78.6748 62.8243 79.1133C62.8384 79.1698 62.8667 79.2406 62.8809 79.2971C62.895 79.3113 62.9233 79.3396 62.9374 79.3537C63.3052 79.4103 63.6729 79.4527 64.0548 79.5093C64.1255 79.5234 64.1962 79.5234 64.2669 79.5376L64.8185 78.0384L62.499 77.7979ZM9.4194 78.6465C9.3204 78.5475 9.23554 78.4202 9.16482 78.293C8.48595 77.1615 8.2738 75.8462 8.51423 74.2763L8.54252 74.0641L8.75467 74.05C9.43354 73.9934 10.0841 74.0641 10.7064 74.1207C11.1166 74.1631 11.5267 74.2056 11.951 74.2056H12.1915L12.2198 74.4319C12.3895 75.5209 12.3753 76.3695 12.1915 77.1615C12.0783 77.6565 11.852 78.1657 11.5692 78.5617C11.2297 79.0567 10.8337 79.184 10.565 79.1981C10.5367 79.1981 10.5226 79.1981 10.4943 79.1981C10.1266 79.2123 9.7447 79.0143 9.4194 78.6465ZM10.664 74.6723C10.1124 74.6157 9.57498 74.5591 9.03753 74.5874C8.86782 75.931 9.05168 77.0342 9.64569 78.0101C9.70227 78.1091 9.77298 78.2081 9.8437 78.2788C10.07 78.5334 10.3246 78.6607 10.5509 78.6465C10.8196 78.6324 11.0176 78.4202 11.1307 78.2505C11.3712 77.8969 11.555 77.4727 11.6682 77.0342C11.8238 76.3695 11.8379 75.6623 11.7248 74.7571C11.357 74.743 11.0034 74.7006 10.664 74.6723ZM7.79293 77.7272C6.98676 77.5999 6.16645 77.4868 5.37443 77.3878C4.38441 77.2605 3.35195 77.1191 2.34778 76.9493L2.12149 76.9069V73.4418L2.4185 73.4701C2.97008 73.5125 3.52167 73.5408 4.05911 73.5833C5.38858 73.6681 6.63318 73.7388 7.90607 73.9086L8.11822 73.9368L8.14651 74.1348C8.28794 74.9552 8.28794 76.8928 8.10408 77.5292L8.03336 77.7697L7.79293 77.7272ZM4.03082 74.149C3.59238 74.1207 3.1398 74.0924 2.67307 74.0641V76.4543C3.59238 76.6099 4.53998 76.7231 5.44515 76.8503C6.15231 76.9493 6.88776 77.0484 7.60907 77.1474C7.69393 76.5109 7.70807 75.2097 7.62321 74.446C6.44932 74.2904 5.27543 74.2197 4.03082 74.149ZM39.5445 74.545L39.4879 74.347C39.3182 73.753 39.2475 63.9659 39.4031 63.0748L39.4455 62.8627L47.1819 62.2404L47.2384 62.4667C47.3799 62.99 47.3374 74.0641 47.196 74.6723L47.1536 74.9269L39.5445 74.545ZM39.9405 63.4001C39.8415 64.9134 39.8839 72.6074 40.0112 74.0076L46.6869 74.3328C46.7859 72.7771 46.8141 64.4043 46.7293 62.8485L39.9405 63.4001ZM38.2999 74.4884C37.7059 74.4601 37.1119 74.446 36.5179 74.4177C34.9904 74.3611 33.3922 74.2904 31.8364 74.2197C29.4321 74.1066 26.9712 73.9793 24.6092 73.8661C23.4071 73.8096 22.2049 73.753 20.9886 73.6823C20.3663 73.654 19.7581 73.6257 19.1358 73.5974C18.0468 73.5408 16.9153 73.4984 15.8121 73.4277C14.7231 73.3711 13.6199 73.3004 12.5451 73.2438C11.2297 73.1731 9.87199 73.0882 8.52838 73.0175C7.45349 72.961 6.36446 72.9185 5.30372 72.8761C4.59655 72.8478 3.86111 72.8195 3.1398 72.7912C2.87108 72.7771 2.60236 72.7488 2.33364 72.7205C2.20635 72.7064 2.07906 72.6922 1.95177 72.6781L1.69719 72.6498V65.8328L1.95177 65.8186C6.44932 65.4792 11.0034 65.1115 15.402 64.7579C23.0818 64.1356 31.0303 63.4991 38.8798 62.9758L39.1768 62.9617V63.2587C39.2192 65.1256 39.1909 67.0067 39.1626 68.8311C39.1344 70.5849 39.1061 72.4094 39.1344 74.2056V74.4884H38.8515C38.7666 74.4884 38.6959 74.4884 38.6393 74.4884C38.5828 74.4884 38.5262 74.4884 38.4838 74.4884C38.4272 74.4884 38.3706 74.4884 38.2999 74.4884ZM38.6111 68.817C38.6393 67.0915 38.6676 65.3236 38.6393 63.5557C30.8888 64.079 23.0393 64.7154 15.4586 65.3236C11.1307 65.6772 6.67561 66.0308 2.26292 66.3702V72.1689C2.30535 72.1689 2.34778 72.1831 2.39021 72.1831C2.65893 72.2114 2.91351 72.2396 3.16809 72.2538C3.88939 72.2821 4.62484 72.3104 5.332 72.3387C6.39275 72.3811 7.48178 72.4235 8.57081 72.4801C9.91441 72.5508 11.2722 72.6215 12.5875 72.7064C13.6624 72.7629 14.7655 72.8337 15.8546 72.8902C16.9578 72.9468 18.0892 73.0034 19.1782 73.06C19.8005 73.0882 20.4087 73.1165 21.031 73.1448C22.2332 73.2014 23.4354 73.258 24.6517 73.3287C27.0277 73.4418 29.4745 73.5691 31.8789 73.6823C33.4346 73.753 35.0187 73.8237 36.5603 73.8803C37.1543 73.9086 37.7483 73.9227 38.3423 73.951C38.4272 73.951 38.5121 73.951 38.5969 73.951C38.5545 72.2114 38.5828 70.4859 38.6111 68.817ZM103.43 71.9144C102.595 71.8861 101.846 71.7163 101.195 71.4335L101.068 71.3769L100.389 67.9684L100.926 68.2937C101.053 68.3785 101.181 68.4493 101.28 68.52C101.506 68.6614 101.69 68.7746 101.888 68.8877C103.274 69.6373 104.603 69.3686 105.551 68.1522C105.905 67.6855 106.216 67.1481 106.456 66.5824C107.036 65.1963 107.22 63.6688 106.98 62.0282C106.782 60.727 106.329 59.6663 105.565 58.8036C104.321 57.3892 102.836 57.3044 101.421 58.5631C100.884 59.044 100.445 59.6805 100.063 60.5573C100.007 60.6846 99.9503 60.826 99.8796 60.9675C99.8513 61.0382 99.8089 61.1231 99.7665 61.2221L99.5119 61.7878L99.2573 61.2221C99.229 61.1655 99.2149 61.1372 99.2007 61.0948C99.1724 61.0382 99.1441 60.9816 99.13 60.9392C99.0452 60.6988 98.9603 60.4583 98.8896 60.2179C98.7198 59.737 98.5501 59.2279 98.3521 58.747C97.9278 57.7428 97.4894 56.7104 97.0651 55.7203C96.5135 54.4333 95.9336 53.0897 95.3962 51.7744C94.6607 49.9923 93.9536 48.1537 93.2606 46.3858C93.0484 45.8484 92.8363 45.3109 92.6383 44.7735C92.5393 44.533 92.4685 44.2926 92.3978 44.0239C92.3554 43.8824 92.313 43.7269 92.2564 43.5571L92.1291 43.1611L124.644 45.6503L124.814 45.6645L124.885 45.8201C125.352 46.9232 125.832 48.0547 126.299 49.1437C127.515 51.9724 128.774 54.9 129.863 57.8701L129.962 58.153L129.665 58.2378C129.637 58.252 129.609 58.252 129.58 58.2661C129.524 58.2803 129.481 58.2944 129.411 58.3086C127.926 58.4924 126.936 59.2986 126.37 60.7978C125.818 62.2828 125.733 63.8527 126.129 65.4509C126.441 66.6955 126.978 67.6714 127.784 68.4351C128.859 69.4534 130.019 69.4817 131.15 68.5058C131.263 68.4068 131.362 68.322 131.49 68.2088C131.546 68.1523 131.617 68.0957 131.688 68.0391L131.985 67.7845L132.126 68.1381C132.451 68.9301 132.833 69.8636 133.187 70.8253L133.314 71.1648L132.961 71.193C132.904 71.193 132.848 71.2072 132.805 71.2072C132.72 71.2213 132.649 71.2213 132.593 71.2213C131.872 71.2496 131.164 71.2638 130.443 71.292C128.774 71.3486 127.049 71.4052 125.352 71.4476C122.933 71.5042 120.458 71.5466 118.082 71.6032C116.229 71.6456 114.32 71.6739 112.439 71.7163C111.053 71.7446 109.638 71.7871 108.267 71.8154C107.319 71.8436 106.329 71.8719 105.367 71.8861H105.197C104.844 71.9002 104.49 71.9002 104.137 71.9002C103.882 71.9285 103.656 71.9144 103.43 71.9144ZM131.758 68.718C131.674 68.7887 131.589 68.8594 131.518 68.9301C130.174 70.0757 128.675 70.0474 127.402 68.8311C126.511 67.9967 125.917 66.9359 125.592 65.5782C125.168 63.8668 125.253 62.1838 125.847 60.5998C126.455 58.9733 127.586 58.0115 129.199 57.7711C128.152 54.9283 126.936 52.0997 125.762 49.37C125.309 48.3376 124.857 47.2627 124.404 46.2019L92.8787 43.7834C92.8928 43.8117 92.8928 43.84 92.907 43.8683C92.9918 44.137 93.0626 44.3633 93.1333 44.5755C93.3454 45.1129 93.5576 45.6503 93.7556 46.1878C94.4486 47.9557 95.1558 49.7802 95.8912 51.5622C96.4286 52.8775 97.0085 54.207 97.5601 55.494C97.9844 56.4841 98.4228 57.5165 98.8471 58.5207C99.0593 59.0157 99.229 59.5249 99.3987 60.0199C99.4412 60.133 99.4836 60.2462 99.5119 60.3735C99.526 60.3593 99.526 60.331 99.5402 60.3169C99.9645 59.3552 100.431 58.6621 101.039 58.1247C101.86 57.3892 102.722 57.0498 103.585 57.1064C104.448 57.1629 105.254 57.6014 105.975 58.4217C106.81 59.3693 107.319 60.5149 107.517 61.9292C107.772 63.6688 107.588 65.2953 106.951 66.7804C106.697 67.3885 106.357 67.9684 105.975 68.4775C104.872 69.9202 103.232 70.2455 101.605 69.3686C101.45 69.2837 101.308 69.1989 101.167 69.114L101.534 70.9809C102.086 71.2072 102.722 71.3345 103.43 71.3628C103.995 71.3911 104.575 71.3769 105.127 71.3628H105.296C106.258 71.3345 107.248 71.3062 108.196 71.292C109.568 71.2496 110.982 71.2213 112.368 71.193C114.249 71.1506 116.173 71.1223 118.011 71.0799C120.401 71.0375 122.862 70.9809 125.281 70.9243C126.978 70.8819 128.704 70.8253 130.372 70.7687C131.08 70.7405 131.787 70.7263 132.494 70.698C132.282 69.9909 132.013 69.3261 131.758 68.718ZM100.078 70.9385C99.9503 70.8678 99.823 70.797 99.6674 70.7263C97.9844 69.7646 96.3155 68.5624 94.2506 66.8369C93.699 66.3843 93.1616 65.9035 92.6241 65.4509C91.7048 64.6589 90.7431 63.8386 89.7813 63.0748C86.4152 60.4442 82.5541 59.2844 78.3253 59.6239L77.7454 59.6663C76.4584 59.7653 75.1289 59.8784 73.8277 59.9775C72.569 60.0765 71.2961 60.1613 70.0656 60.2462C69.1039 60.3169 68.128 60.3876 67.1663 60.4583C66.5157 60.5008 65.8651 60.5573 65.2004 60.5998C63.1072 60.7553 60.9574 60.9109 58.8359 61.0806C57.1246 61.2221 55.3991 61.3635 53.716 61.5049C52.5139 61.6039 51.2834 61.7171 50.0671 61.8161C49.6004 61.8585 49.1478 61.8727 48.6528 61.9009C48.4265 61.9151 48.2143 61.9292 47.988 61.9292L47.7052 61.9434L47.691 61.6605C47.691 61.5898 47.6769 61.5191 47.6769 61.4484C47.6627 61.3211 47.6627 61.2079 47.6627 61.0806C47.6627 57.2337 47.6769 53.3867 47.6769 49.5539C47.691 44.335 47.691 39.1162 47.7052 33.8832C47.7052 32.2001 47.691 30.5312 47.691 28.9755C47.691 28.8199 47.6769 28.6502 47.6486 28.4663C47.5637 28.4946 47.493 28.5087 47.4223 28.537C47.2526 28.6077 47.097 28.6643 46.9273 28.735C46.3898 28.9472 45.8383 29.1593 45.315 29.3998C44.4805 29.7675 43.6461 30.1493 42.8257 30.5171C41.8074 30.9838 40.7608 31.4505 39.7284 31.9031C39.4031 32.0445 39.2758 32.2284 39.2899 32.582C39.2899 32.9639 39.2899 33.3316 39.2758 33.6993C39.2758 34.0105 39.2617 34.3216 39.2617 34.6328C39.2617 35.7501 39.2758 36.8532 39.2758 37.9706C39.2899 39.7243 39.2899 41.5488 39.2899 43.3309C39.2899 47.5314 39.2758 51.8027 39.2617 55.9466C39.2617 57.7287 39.2475 59.5107 39.2475 61.2786C39.2475 61.5049 39.2475 61.7312 39.2475 61.9575V62.5374L36.8714 62.7354C25.4296 63.6688 14.0584 64.5882 2.67307 65.5075C2.53164 65.5216 2.39021 65.5216 2.23463 65.5075C2.16392 65.5075 2.07906 65.5075 1.9942 65.5075H1.71133V64.8144C1.71133 64.5174 1.71133 64.2487 1.71133 63.9658C1.71133 62.9475 1.71133 61.9292 1.71133 60.8968C1.71133 58.351 1.69719 55.7345 1.71133 53.1463C1.71133 51.9582 1.86691 50.7278 2.16392 49.4973C2.24878 49.1154 2.44678 48.8891 2.78622 48.7477C5.20471 47.7153 7.58078 46.4989 9.88613 45.3251C10.4377 45.0422 11.0176 44.7452 11.5833 44.4623C23.4495 38.4797 33.3215 33.5862 42.6277 29.0745C46.404 27.2358 50.2368 25.3689 53.9565 23.5586C56.7427 22.2008 59.6138 20.7865 62.4566 19.4146C63.1354 19.0893 63.8426 18.8206 64.4366 18.6085C66.0772 18.0286 68.5947 18.8913 69.3868 20.8714C69.6272 21.4937 69.8535 22.1301 70.0232 22.809C70.2495 23.6717 70.4758 24.5628 70.6879 25.4114C71.0132 26.6843 71.3385 27.9854 71.6921 29.2583C72.272 31.3374 73.1347 33.0346 74.3086 34.4348C76.8968 37.518 80.3054 39.498 84.4493 40.3042C85.2555 40.4598 86.0475 40.5588 86.8537 40.5871C86.8395 40.5163 86.8254 40.4598 86.7971 40.3891C86.5708 39.6678 86.3445 38.9464 86.1182 38.2393C85.5666 36.5138 85.0151 34.7176 84.4069 32.978C83.5866 30.6444 82.5258 28.537 81.2529 26.6984C79.6406 24.393 77.7454 22.7949 75.4259 21.819C73.7287 21.0977 72.1588 20.6875 70.6314 20.5744C70.0373 20.5319 69.6272 20.3057 69.2736 19.8531C68.524 18.8772 67.5623 18.2973 66.4308 18.1559C65.3418 18.0144 64.3376 18.1559 63.4325 18.5802C62.8526 18.8489 62.2868 19.1459 61.7211 19.4146C61.3393 19.6126 60.9291 19.8106 60.5331 20.0086C44.9755 27.5894 29.1351 35.4248 13.4644 43.3026C11.258 44.4057 9.02339 45.5513 6.85947 46.6404C5.6573 47.2485 4.44098 47.8708 3.22466 48.479C3.16809 48.5073 3.11151 48.5214 3.0408 48.5497C2.99837 48.5639 2.95594 48.578 2.89937 48.5921L2.33364 48.7619L2.57407 48.2103C2.64479 48.0547 2.70136 47.9133 2.75793 47.786C2.87108 47.5173 2.97008 47.291 3.08323 47.0505C4.48341 43.9532 6.40689 41.6902 8.98096 40.1203C9.50426 39.795 10.0417 39.4839 10.565 39.1727C10.8337 39.0172 11.1024 38.8474 11.3712 38.6919L21.0876 32.8366C33.4912 25.3548 46.3191 17.6326 58.9208 10.0094C60.4624 9.07591 61.905 8.56675 63.3476 8.43946C64.5498 8.32632 65.7519 8.2556 66.9258 8.22732C69.3868 8.1566 71.8053 8.83548 74.1247 10.2074C76.3028 11.5085 78.2404 13.3755 80.0649 15.9354C81.5217 17.9862 82.7663 20.2349 83.8412 22.809C84.9585 25.4679 86.0334 28.1976 87.08 30.8424L87.2497 31.2808C87.5043 31.9314 87.773 32.5961 88.0276 33.2467C89.2439 36.3158 90.5026 39.498 91.6907 42.6378C91.8462 43.048 92.0018 43.4723 92.1574 43.8824C93.9394 48.6063 95.7781 53.4998 97.9137 58.1671C98.5077 59.4824 98.9603 60.9392 99.2431 62.4808C99.4694 63.7678 99.6957 65.069 99.922 66.3278C100.035 66.9642 100.134 67.6007 100.247 68.2371C100.346 68.7746 100.431 69.312 100.53 69.8494C100.573 70.0899 100.615 70.3445 100.657 70.5849L100.714 70.9102H100.375C100.346 70.9102 100.332 70.9102 100.318 70.9102C100.304 70.9102 100.29 70.9102 100.261 70.9102C100.191 70.9668 100.134 70.9668 100.078 70.9385ZM66.8975 8.80719C65.7378 8.83548 64.5498 8.90619 63.3617 9.01934C61.9898 9.14663 60.6462 9.6275 59.1612 10.5185C46.5596 18.1276 33.7316 25.8639 21.328 33.3457L11.6116 39.201C11.3429 39.3566 11.0742 39.5263 10.8054 39.6819C10.2821 39.993 9.75884 40.3183 9.23554 40.6295C6.76047 42.1428 4.89356 44.335 3.54995 47.3192C3.47924 47.489 3.39438 47.6587 3.32366 47.8425C4.41269 47.291 5.50172 46.7394 6.59075 46.1878C8.75467 45.0846 10.9893 43.9532 13.1956 42.85C28.8664 34.9722 44.7068 27.1227 60.2644 19.5561C60.6604 19.3581 61.0564 19.16 61.4383 18.9762C62.004 18.6933 62.5839 18.4105 63.1637 18.1276C64.1679 17.6467 65.2852 17.4911 66.4733 17.6609C67.7603 17.8306 68.8352 18.4812 69.6838 19.5702C69.9383 19.8955 70.2071 20.0369 70.6455 20.0794C72.2437 20.2066 73.856 20.6309 75.6098 21.3664C78.0283 22.3847 80.0083 24.0395 81.6772 26.4297C82.9926 28.3107 84.0675 30.4605 84.9019 32.8507C85.5101 34.5903 86.0758 36.3865 86.6274 38.1261C86.8537 38.8333 87.08 39.5546 87.3063 40.2759C87.3487 40.4032 87.377 40.5305 87.4053 40.6719C87.4194 40.7285 87.4335 40.7992 87.4477 40.8699L87.5325 41.2094H87.179C86.2172 41.1952 85.2838 41.0962 84.322 40.9124C80.0508 40.0638 76.5433 38.0271 73.8702 34.8449C72.6397 33.374 71.7487 31.6202 71.1405 29.4563C70.7869 28.1693 70.4475 26.854 70.1222 25.5952C69.9101 24.7466 69.6838 23.8556 69.4575 22.9929C69.2878 22.3423 69.0756 21.72 68.8352 21.126C68.1563 19.4571 65.9641 18.6933 64.5922 19.1883C63.9982 19.4005 63.3193 19.6551 62.6687 19.9662C59.8401 21.3522 56.9548 22.7524 54.1686 24.1102C50.4631 25.9205 46.6161 27.8016 42.8399 29.6261C33.5336 34.1377 23.6758 39.0313 11.8096 45.0139C11.2439 45.2968 10.664 45.5938 10.1124 45.8766C7.80707 47.0505 5.41686 48.2668 2.98423 49.3134C2.81451 49.3842 2.72965 49.4832 2.68722 49.6812C2.40435 50.8833 2.24878 52.0572 2.24878 53.2028C2.23463 55.791 2.24878 58.4076 2.24878 60.9533C2.24878 61.9717 2.24878 62.99 2.24878 64.0224C2.24878 64.3053 2.24878 64.574 2.24878 64.871V65.0125C2.37607 65.0125 2.50335 65.0125 2.6165 65.0125C14.0018 64.0931 25.373 63.1738 36.8149 62.2404L38.6818 62.0848V62.0141C38.6818 61.7878 38.6818 61.5615 38.6818 61.3352C38.6818 59.5532 38.6959 57.7711 38.6959 56.0032C38.7101 51.8734 38.7101 47.6021 38.7242 43.4016C38.7242 41.6195 38.7242 39.795 38.7101 38.0413C38.7101 36.924 38.6959 35.8208 38.6959 34.7035C38.6959 34.3923 38.6959 34.067 38.7101 33.7559C38.7101 33.3882 38.7242 33.0204 38.7242 32.6527C38.7242 32.0728 38.9646 31.691 39.5021 31.4647C40.5345 31.0121 41.5811 30.5312 42.5995 30.0786C43.4198 29.7109 44.2542 29.329 45.0887 28.9613C45.6261 28.7209 46.1918 28.5087 46.7293 28.2966C46.899 28.2259 47.0546 28.1693 47.2243 28.0986C47.3516 28.042 47.4789 28.0137 47.6203 27.9713C47.691 27.9571 47.7617 27.9289 47.8325 27.9147L48.1577 27.8157L48.186 28.1551C48.2002 28.2542 48.2002 28.3532 48.2143 28.4522C48.2426 28.6502 48.2567 28.8482 48.2567 29.0462C48.2709 30.6019 48.285 32.2708 48.2709 33.9539C48.2709 39.1727 48.2568 44.3916 48.2426 49.6246C48.2426 53.4716 48.2285 57.3185 48.2285 61.1513C48.2285 61.2362 48.2285 61.3211 48.2426 61.4059C48.3699 61.4059 48.5113 61.3918 48.6386 61.3918C49.1195 61.3635 49.5721 61.3493 50.0388 61.3069C51.2551 61.2079 52.4997 61.0948 53.6878 60.9958C55.3708 60.8543 57.0963 60.6988 58.8076 60.5715C60.9291 60.4018 63.093 60.2462 65.1862 60.0906C65.8368 60.0482 66.4874 59.9916 67.1521 59.9492C68.1139 59.8784 69.0898 59.8077 70.0515 59.737C71.282 59.6522 72.5548 59.5532 73.8136 59.4683C75.1148 59.3693 76.4442 59.2561 77.7313 59.1571L78.3111 59.1147C82.6956 58.7611 86.6839 59.9633 90.1632 62.6788C91.1391 63.4426 92.1008 64.277 93.0343 65.069C93.5576 65.5216 94.1092 65.9883 94.6466 66.4551C96.6832 68.1664 98.338 69.3403 99.9927 70.2879C100.007 70.302 100.021 70.302 100.035 70.3162C100.021 70.2313 100.007 70.1464 99.9927 70.0616C99.8937 69.5241 99.7947 68.9867 99.7099 68.4493C99.5967 67.8128 99.4836 67.1764 99.3846 66.5399C99.1724 65.2812 98.9461 63.98 98.7057 62.693C98.437 61.1938 97.9986 59.7795 97.4187 58.5066C95.2831 53.811 93.4303 48.9174 91.6482 44.1794C91.4927 43.7693 91.3371 43.345 91.1815 42.9348C89.9935 39.795 88.7347 36.6128 87.5184 33.5437C87.2638 32.8931 86.9951 32.2284 86.7405 31.5778L86.5708 31.1394C85.5242 28.4946 84.4493 25.7791 83.332 23.1202C82.2713 20.5885 81.0549 18.368 79.6123 16.3455C77.8303 13.8563 75.9492 12.0318 73.8419 10.7731C71.7204 9.50021 69.4999 8.86376 67.2511 8.86376C67.1097 8.80719 66.9966 8.80719 66.8975 8.80719ZM102.694 68.0108C101.987 67.5441 101.464 66.9076 101.138 66.0873C100.841 65.3519 100.686 64.5174 100.672 63.5415C100.686 62.2404 100.954 61.1372 101.478 60.1896C101.874 59.4824 102.397 59.0016 103.09 58.747C103.472 58.6056 103.84 58.648 104.179 58.8743C104.773 59.2703 105.226 59.8077 105.537 60.5149C105.862 61.2503 106.046 62.0707 106.074 62.9475C106.131 64.4467 105.834 65.7338 105.155 66.8935C104.787 67.5441 104.292 67.9542 103.67 68.1381C103.543 68.1805 103.43 68.1947 103.316 68.1947C103.09 68.2088 102.892 68.1381 102.694 68.0108ZM103.274 59.2844C102.722 59.4966 102.284 59.8784 101.959 60.4725C101.478 61.3352 101.237 62.3535 101.223 63.5557C101.251 64.4609 101.393 65.2246 101.662 65.9035C101.945 66.6106 102.383 67.1622 103.005 67.5582C103.175 67.6714 103.316 67.6855 103.514 67.629C103.995 67.4875 104.377 67.1622 104.688 66.6389C105.296 65.5782 105.579 64.376 105.523 62.99C105.494 62.1838 105.325 61.4484 105.028 60.7695C104.759 60.1613 104.377 59.6946 103.868 59.3693C103.741 59.2844 103.642 59.2561 103.529 59.2561C103.444 59.2279 103.359 59.242 103.274 59.2844ZM128.732 67.9684C128.124 67.6431 127.657 67.1764 127.332 66.5116C126.907 65.663 126.695 64.7154 126.681 63.6123C126.723 62.3535 126.964 61.3493 127.431 60.4725C127.728 59.8926 128.11 59.4966 128.59 59.2279C129.17 58.9167 129.708 58.9167 130.231 59.2137C130.853 59.5673 131.263 60.0199 131.504 60.5715C131.645 60.9109 131.801 61.2645 131.9 61.6464C132.423 63.4708 132.211 65.2105 131.263 66.7945C130.938 67.3461 130.514 67.7421 129.991 67.9967C129.778 68.0957 129.566 68.1522 129.368 68.1522C129.142 68.1381 128.944 68.0815 128.732 67.9684ZM128.845 59.7087C128.463 59.9209 128.166 60.2462 127.912 60.7129C127.487 61.5191 127.275 62.4384 127.218 63.6123C127.233 64.6306 127.416 65.4933 127.813 66.2571C128.095 66.8086 128.477 67.2047 128.972 67.4734C129.227 67.6007 129.467 67.6007 129.736 67.4734C130.16 67.2612 130.5 66.9501 130.768 66.4833C131.631 65.0266 131.829 63.4426 131.348 61.7736C131.249 61.4342 131.108 61.0806 130.966 60.7695C130.768 60.3169 130.443 59.9775 129.92 59.6663C129.75 59.5673 129.58 59.5107 129.411 59.5107C129.255 59.539 129.057 59.5956 128.845 59.7087ZM39.7849 62.5515C39.7284 62.5515 39.6718 62.5374 39.6152 62.5374L39.3606 62.5232V61.3069C39.3606 60.6422 39.3606 59.9916 39.3606 59.3552C39.3606 57.4317 39.3606 55.5082 39.3748 53.5847C39.3748 50.2752 39.3889 46.9515 39.3889 43.642C39.3889 40.4881 39.3889 37.122 39.3889 33.0487C39.3889 32.7517 39.3889 32.3557 39.8981 32.1294C41.2983 31.5071 42.7267 30.8565 44.0986 30.2342C44.8341 29.9089 45.5554 29.5695 46.2908 29.2442C46.4464 29.1735 46.602 29.131 46.7859 29.0603C46.8849 29.032 46.9839 29.0037 47.097 28.9613L47.4647 28.834L47.3374 61.7595V61.9858L47.1111 62.0282C47.0687 62.0282 47.0404 62.0424 47.0121 62.0424C46.9414 62.0565 46.8707 62.0707 46.8 62.0848C46.4888 62.1131 46.1777 62.1414 45.8665 62.1697C45.0038 62.2545 44.1269 62.3394 43.25 62.396C42.3024 62.4667 41.3548 62.5232 40.4214 62.5657L40.2375 62.5798C40.2092 62.5798 40.181 62.5798 40.1527 62.5798C40.0254 62.5798 39.8981 62.5657 39.7849 62.5515ZM46.899 29.5978C46.7434 29.6402 46.6303 29.6826 46.5171 29.7392C45.7817 30.0645 45.0604 30.4039 44.3249 30.7292C42.953 31.3515 41.5246 32.0021 40.1244 32.6244C39.9547 32.6951 39.9405 32.7517 39.9405 33.0346C39.9405 37.1078 39.9405 40.4739 39.9405 43.6279C39.9405 46.9374 39.9264 50.261 39.9264 53.5706C39.9264 55.494 39.9264 57.4175 39.9122 59.341C39.9122 59.9775 39.9122 60.628 39.9122 61.2928V61.9999C40.0112 62.0141 40.1102 62.0141 40.1951 62.0141L40.379 61.9999C41.2983 61.9575 42.26 61.9009 43.1935 61.8302C44.0562 61.7595 44.9472 61.6746 45.7958 61.6039C46.107 61.5756 46.4181 61.5474 46.7434 61.5191C46.7576 61.5191 46.7717 61.5191 46.7859 61.5191L46.899 29.5978ZM101.28 42.6661L92.6665 42.0155L85.7222 24.4355L86.4011 24.3365C86.6274 24.3082 86.8254 24.2799 87.0375 24.2375C87.5608 24.1668 88.0983 24.0819 88.6216 23.997C89.7813 23.8132 90.9835 23.6293 92.1857 23.5303C95.2123 23.2757 98.1966 23.502 101.237 23.7849C104.038 24.0395 106.796 24.4355 109.412 24.9729C112.184 25.5386 114.263 26.1185 116.158 26.8398C116.597 27.0095 116.866 27.2641 117.049 27.6743C117.7 29.1876 118.351 30.7292 118.987 32.2143C119.242 32.7941 119.496 33.3882 119.737 33.968L120.444 35.6228C121.42 37.8998 122.438 40.2476 123.428 42.5671C123.555 42.8783 123.669 43.1753 123.796 43.5006C123.852 43.642 123.909 43.7976 123.966 43.9532L124.121 44.3633L101.28 42.6661ZM92.214 24.1102C91.0401 24.2092 89.8379 24.393 88.6923 24.5769C88.169 24.6618 87.6315 24.7466 87.1082 24.8173C86.9102 24.8456 86.7122 24.8739 86.5001 24.9022L93.0626 41.5064L123.287 43.7693C123.287 43.7551 123.273 43.741 123.273 43.7269C123.159 43.4157 123.046 43.1187 122.919 42.8217C121.929 40.5022 120.925 38.1544 119.935 35.8774L119.228 34.2226C118.973 33.6427 118.718 33.0487 118.478 32.4688C117.842 30.9838 117.177 29.4422 116.526 27.9289C116.413 27.6601 116.243 27.5046 115.946 27.3914C114.079 26.6701 112.029 26.1044 109.299 25.5528C106.697 25.0154 103.967 24.6193 101.181 24.3789C99.0734 24.195 96.9944 24.0253 94.9153 24.0253C94.0102 23.997 93.1191 24.0395 92.214 24.1102ZM84.8029 39.3707C84.5483 39.3 84.2937 39.2152 84.0392 39.1445C83.4876 38.9889 82.9784 38.8333 82.4551 38.6636C80.7579 38.1403 79.2022 37.3765 77.8586 36.3865C75.3552 34.5762 73.6297 32.1294 72.7104 29.1027C72.2578 27.6319 71.8477 26.1185 71.4375 24.6476C71.3102 24.2092 71.1971 23.7566 71.0698 23.3182C70.9991 23.0777 70.9567 22.8514 70.9142 22.5686C70.8859 22.4271 70.8577 22.2857 70.8294 22.1301L70.7445 21.6917L71.1688 21.8048C71.3527 21.8473 71.5365 21.9038 71.6921 21.9463C72.0315 22.0311 72.3286 22.1018 72.6256 22.2008C75.7088 23.106 78.099 24.6476 79.9518 26.9105C80.9842 28.1834 81.8187 29.5978 82.441 31.1394C83.1199 32.8366 83.7704 34.5762 84.4069 36.2592C84.6049 36.7967 84.8029 37.32 85.0009 37.8574C85.0999 38.112 85.1423 38.3807 85.1848 38.6353V38.6636C85.1989 38.7767 85.1848 38.8899 85.1706 39.003C85.1706 39.0454 85.1565 39.0879 85.1565 39.1303L85.1141 39.4697L84.8029 39.3707ZM71.4658 22.4837C71.5082 22.7383 71.5507 22.9646 71.6073 23.1767C71.7345 23.6152 71.8477 24.0678 71.975 24.5062C72.371 25.9629 72.7953 27.4763 73.2337 28.9472C74.1106 31.8465 75.7795 34.2085 78.1839 35.9481C79.485 36.8957 80.9842 37.6311 82.6248 38.1403C83.1481 38.2959 83.6573 38.4514 84.1947 38.607C84.3362 38.6494 84.4917 38.6919 84.6332 38.7343V38.7202C84.5908 38.4797 84.5625 38.2534 84.4776 38.0554C84.2796 37.518 84.0816 36.9947 83.8836 36.4572C83.2613 34.7742 82.6107 33.0346 81.9318 31.3515C81.3237 29.8665 80.5175 28.4946 79.5275 27.2641C77.7596 25.0861 75.4542 23.601 72.4841 22.7383C72.2013 22.6534 71.9043 22.5827 71.5648 22.4979C71.5365 22.4837 71.4941 22.4837 71.4658 22.4696C71.4658 22.4696 71.4658 22.4696 71.4658 22.4837ZM115.777 25.3831C114.744 25.2134 113.797 24.9305 112.877 24.6476C112.099 24.4072 111.364 24.195 110.6 24.0395L110.317 23.9829C108.705 23.6717 107.05 23.3606 105.395 23.1202C103.529 22.8514 101.831 22.6676 100.219 22.5403C98.437 22.413 96.6832 22.3564 95.0143 22.3847C93.2747 22.3988 91.5068 22.4979 89.753 22.6676C88.565 22.7807 87.3911 22.9504 86.1465 23.1343C85.6091 23.2192 85.0575 23.2899 84.5059 23.3747L84.3079 23.403L84.223 23.2192C84.1947 23.1626 84.1806 23.1202 84.1523 23.0636C84.0957 22.9504 84.0392 22.8373 83.9826 22.71C83.1057 20.7724 82.2147 19.061 81.2529 17.4629C80.0508 15.4828 78.8203 13.8705 77.4767 12.5269C73.8702 8.89205 69.7828 7.42115 65.0024 8.02931C64.8609 8.04345 64.7053 8.07174 64.5356 8.08588L63.0364 8.26975L64.0548 7.60501C65.0448 6.96857 68.0714 6.19069 70.5748 5.68153C73.064 5.17237 76.2038 4.6915 77.5333 4.84708L77.8161 4.87537L77.7878 5.15823C77.7596 5.4411 77.8869 5.59667 78.3394 5.78054C78.4384 5.82297 78.5374 5.86539 78.6223 5.90782C78.7496 5.9644 78.8769 6.02097 79.0042 6.0634C82.1015 7.26558 85.3403 8.36875 88.6216 9.34463C90.2198 9.8255 91.8038 9.74064 93.3313 9.09005C93.3878 9.06177 93.4444 9.03348 93.501 9.00519L92.808 6.57256L93.2888 6.71399C93.3737 6.74228 93.4444 6.75642 93.501 6.77056C93.6283 6.79885 93.7414 6.82713 93.8546 6.88371C94.3779 7.08171 94.9153 7.29386 95.4245 7.49187C96.6549 7.95859 97.9137 8.43947 99.1441 8.96277C101.747 10.0801 104.137 11.4237 106.23 12.9794C108.436 14.6201 110.416 16.5294 112.085 18.665C113.542 20.5319 114.617 22.1301 115.451 23.7C115.593 23.9546 115.706 24.2092 115.833 24.5062C115.904 24.6476 115.975 24.8032 116.045 24.9729L116.272 25.4538L115.777 25.3831ZM94.1516 9.3022L93.9536 9.40121C93.9112 9.42949 93.8687 9.44364 93.8263 9.47192C93.7414 9.52849 93.6424 9.57092 93.5434 9.61335C91.8887 10.3064 90.1632 10.4054 88.4519 9.88208C85.1565 8.89205 81.9035 7.78888 78.792 6.5867C78.6506 6.53013 78.5233 6.47355 78.396 6.41698C78.3112 6.37455 78.2122 6.33212 78.1273 6.30384C77.8444 6.19069 77.3211 5.97854 77.2363 5.39867C76.0624 5.34209 73.5449 5.66739 70.6879 6.24726C68.8917 6.61499 67.3077 7.011 66.1338 7.37872C68.1987 7.26557 70.1646 7.54844 71.9891 8.22732C74.0965 9.00519 76.0765 10.3205 77.8868 12.145C79.2587 13.531 80.5175 15.1717 81.7338 17.1941C82.7097 18.8206 83.6149 20.5461 84.5059 22.512C84.5483 22.611 84.6049 22.71 84.6473 22.809C85.1282 22.7383 85.6091 22.6676 86.0899 22.5969C87.3345 22.413 88.5084 22.2433 89.7247 22.116C91.4927 21.9463 93.2747 21.8473 95.0285 21.8331C96.7115 21.819 98.4794 21.8755 100.29 22.0028C101.916 22.116 103.628 22.314 105.509 22.5827C107.163 22.8231 108.832 23.1484 110.445 23.4454L110.727 23.502C111.519 23.6576 112.297 23.898 113.061 24.1243C113.811 24.3506 114.574 24.5769 115.366 24.7466C115.239 24.4638 115.126 24.2092 114.999 23.9829C114.178 22.4413 113.118 20.8714 111.675 19.0328C108.422 14.8888 104.264 11.7631 98.9461 9.50021C97.7298 8.97691 96.4711 8.49604 95.2548 8.04346C94.7315 7.84545 94.194 7.64744 93.6707 7.4353C93.6566 7.4353 93.6424 7.42115 93.6283 7.42115L94.1516 9.3022ZM86.8678 8.60919C86.1748 8.35461 85.4676 8.08589 84.7887 7.83131C82.8653 7.11 80.8711 6.34626 78.8627 5.76639C78.7779 5.7381 78.7213 5.69567 78.6506 5.65324C78.6223 5.6391 78.594 5.61082 78.5657 5.59667L78.2687 5.42695L78.495 5.17238C79.5699 3.99849 81.0549 2.55587 83.1199 1.90529C83.9119 1.65071 84.718 1.56585 85.4818 1.63656C87.6598 1.84871 89.357 2.83874 90.5309 4.56422C91.1391 5.46938 91.7048 6.41698 92.2564 7.33629C92.4827 7.71816 92.7231 8.12831 92.9494 8.51018C92.9918 8.59504 93.006 8.66576 93.006 8.73647C93.006 8.76476 93.006 8.79305 93.0201 8.82133L93.0626 9.1042L92.7797 9.13249C92.5958 9.16077 92.412 9.17492 92.2281 9.2032C91.8321 9.25977 91.4078 9.31635 90.9976 9.34463C90.8562 9.35878 90.7289 9.35878 90.6016 9.35878C89.1732 9.38706 87.872 8.97691 86.8678 8.60919ZM91.7755 7.6333C91.2381 6.71399 90.6865 5.76639 90.0783 4.88951C89.0034 3.30547 87.4335 2.4003 85.4393 2.20229C84.7463 2.13158 84.025 2.21644 83.3037 2.44273C81.5217 3.00846 80.2205 4.16821 79.1739 5.28552C81.1539 5.8654 83.1057 6.60084 85.0009 7.32215C85.6798 7.57673 86.3728 7.84545 87.0658 8.10003C88.1124 8.48189 89.4985 8.92033 90.9694 8.83548C91.3654 8.80719 91.7472 8.76476 92.1574 8.70819C92.2281 8.69404 92.313 8.6799 92.3837 8.6799C92.1715 8.31218 91.9735 7.97274 91.7755 7.6333Z" fill="#004900"/>
</svg>
