<svg width="21" height="20" viewBox="0 0 21 20" fill="none" xmlns="http://www.w3.org/2000/svg">
<path d="M9.76305 1.30937C10.0624 0.388063 11.3658 0.388065 11.6652 1.30938L13.296 6.32863C13.4299 6.74065 13.8139 7.01961 14.2471 7.01961H19.5246C20.4934 7.01961 20.8961 8.25923 20.1124 8.82863L15.8428 11.9307C15.4923 12.1853 15.3456 12.6367 15.4795 13.0487L17.1104 18.068C17.4097 18.9893 16.3552 19.7554 15.5715 19.186L11.3019 16.084C10.9514 15.8293 10.4768 15.8293 10.1263 16.084L5.85669 19.186C5.07298 19.7554 4.0185 18.9893 4.31785 18.068L5.94871 13.0487C6.08258 12.6367 5.93592 12.1853 5.58543 11.9307L1.3158 8.82863C0.532088 8.25923 0.934865 7.01961 1.90359 7.01961H7.18114C7.61437 7.01961 7.99833 6.74065 8.1322 6.32863L9.76305 1.30937Z" fill="#FACD07"/>
</svg>
