<svg width="26" height="21" viewBox="0 0 26 21" fill="none" xmlns="http://www.w3.org/2000/svg">
<path d="M0.785889 9.34986C1.06952 9.14054 1.32384 8.85272 1.64095 8.73446C9.21933 5.89087 16.804 3.06611 24.3876 0.237175C24.4525 0.213103 24.5174 0.189032 24.5833 0.167053C25.3578 -0.0862223 25.9209 0.394164 25.7576 1.18539C24.4776 7.36552 23.1966 13.5446 21.9072 19.7226C21.656 20.9273 20.7423 21.2601 19.7334 20.5316C18.0159 19.2925 16.3048 18.046 14.5904 16.8037C14.4387 16.6938 14.2817 16.5902 14.1027 16.4667C13.1085 17.4055 12.1372 18.3202 11.1681 19.237C10.3015 20.0565 9.67983 19.9037 9.29992 18.7734C8.62068 16.7524 7.93307 14.7335 7.2779 12.7052C7.16278 12.3473 6.98695 12.1694 6.63634 12.0647C4.99214 11.5749 3.34795 11.082 1.7205 10.5398C1.37407 10.4247 1.09673 10.1003 0.786935 9.87106C0.785888 9.69732 0.785889 9.52359 0.785889 9.34986ZM10.2293 17.2694C10.3497 16.1935 10.4805 15.2547 10.5475 14.3117C10.5778 13.8921 10.7484 13.6241 11.0509 13.3531C14.3707 10.3766 17.68 7.38959 20.9809 4.39319C21.1233 4.26342 21.1505 4.00595 21.2311 3.80815C21.0301 3.83327 20.7884 3.7935 20.6335 3.89188C16.6805 6.39846 12.739 8.9218 8.78918 11.4336C8.53905 11.5927 8.48776 11.7309 8.57882 12.0208C9.08432 13.6231 9.56157 15.2328 10.0514 16.8403C10.0838 16.945 10.1361 17.0455 10.2293 17.2694Z" fill="white"/>
</svg>
