<svg width="25" height="26" viewBox="0 0 25 26" fill="none" xmlns="http://www.w3.org/2000/svg">
<g clip-path="url(#clip0_51_46)">
<path fill-rule="evenodd" clip-rule="evenodd" d="M21.3156 3.73245C18.976 1.39079 15.8656 0.100163 12.552 0.0991211C5.72391 0.0991211 0.166618 5.65537 0.163493 12.4866C0.162451 14.67 0.733284 16.8012 1.81766 18.6804L0.0593262 25.0991L6.62599 23.3762C8.43537 24.3637 10.4729 24.8835 12.5458 24.8845H12.551C19.3781 24.8845 24.9364 19.3272 24.9395 12.496C24.9416 9.18662 23.6541 6.07308 21.3156 3.73245ZM12.552 22.7918H12.5479C10.7 22.7918 8.88849 22.295 7.30724 21.3564L6.9312 21.1335L3.03433 22.1554L4.07495 18.3554L3.83016 17.9658C2.79891 16.3262 2.25516 14.4314 2.2562 12.4866C2.25828 6.80954 6.87808 2.19079 12.5572 2.19079C15.3072 2.19079 17.8927 3.2637 19.8364 5.20954C21.7802 7.15641 22.85 9.74287 22.8489 12.4939C22.8458 18.1731 18.227 22.7918 12.552 22.7918ZM18.2 15.0804C17.8906 14.9252 16.3687 14.1762 16.0843 14.0731C15.801 13.97 15.5947 13.9179 15.3875 14.2272C15.1802 14.5366 14.5885 15.2345 14.4072 15.4418C14.227 15.6481 14.0458 15.6741 13.7364 15.5189C13.427 15.3637 12.4291 15.0377 11.2468 13.9825C10.327 13.1616 9.70516 12.1481 9.52495 11.8377C9.34474 11.5272 9.5062 11.3606 9.66037 11.2064C9.79995 11.0679 9.96974 10.845 10.125 10.6637C10.2812 10.4845 10.3322 10.3554 10.4364 10.1481C10.5395 9.94183 10.4885 9.76058 10.4104 9.60537C10.3322 9.4512 9.71349 7.92725 9.4562 7.30745C9.20516 6.70329 8.94995 6.78558 8.75933 6.7762C8.57912 6.76683 8.37287 6.76579 8.16558 6.76579C7.95933 6.76579 7.62391 6.84287 7.34058 7.15329C7.05724 7.4637 6.25724 8.21266 6.25724 9.73558C6.25724 11.2595 7.36662 12.7314 7.52078 12.9377C7.67495 13.1439 9.70308 16.271 12.8083 17.6116C13.5468 17.9304 14.1239 18.121 14.5729 18.2637C15.3145 18.4991 15.9895 18.4658 16.5229 18.3866C17.1177 18.2981 18.3541 17.6377 18.6125 16.9147C18.8708 16.1918 18.8708 15.571 18.7927 15.4429C18.7156 15.3127 18.5093 15.2356 18.2 15.0804Z" fill="white"/>
</g>
<defs>
<clipPath id="clip0_51_46">
<rect width="25" height="25" fill="white" transform="translate(0 0.0991211)"/>
</clipPath>
</defs>
</svg>
